<?xml version="1.0" encoding="UTF-8"?>
<!DOCTYPE svg PUBLIC "-//W3C//DTD SVG 1.1//EN" "http://www.w3.org/Graphics/SVG/1.1/DTD/svg11.dtd">
<svg xmlns="http://www.w3.org/2000/svg" version="1.1" width="207px" height="240px" style="shape-rendering:geometricPrecision; text-rendering:geometricPrecision; image-rendering:optimizeQuality; fill-rule:evenodd; clip-rule:evenodd" xmlns:xlink="http://www.w3.org/1999/xlink">
<g><path style="opacity:1" fill="#d8d8d8" d="M -0.5,-0.5 C 68.5,-0.5 137.5,-0.5 206.5,-0.5C 206.5,34.1667 206.5,68.8333 206.5,103.5C 196.64,57.139 168.64,28.3057 122.5,17C 116.096,16.5602 109.762,15.7268 103.5,14.5C 99.3825,14.8174 95.5492,15.8174 92,17.5C 91.3333,16.8333 90.6667,16.1667 90,15.5C 86.7898,17.3058 83.4565,17.6392 80,16.5C 79.0546,16.9054 78.3879,17.572 78,18.5C 77.2825,17.5494 76.4491,17.3828 75.5,18C 76.4506,18.7175 76.6172,19.5509 76,20.5C 74.8668,18.7888 73.3668,18.2888 71.5,19C 75.3008,20.4494 75.4675,22.2828 72,24.5C 71.3333,25.5 71.3333,26.5 72,27.5C 72.6368,25.6969 73.8035,24.3636 75.5,23.5C 77.1349,24.3302 78.8016,24.4969 80.5,24C 79.2986,24.9025 78.4652,26.0692 78,27.5C 76.9505,26.4829 75.7839,26.3162 74.5,27C 77.0972,27.7792 77.0972,28.2792 74.5,28.5C 73.2976,29.4054 71.9643,29.4054 70.5,28.5C 69.0883,26.0199 67.4216,23.6866 65.5,21.5C 64.8732,23.3977 64.5398,25.7311 64.5,28.5C 62.8762,28.3601 61.7096,29.0267 61,30.5C 60.5034,28.1902 60.3367,25.8568 60.5,23.5C 61.552,23.6495 62.552,23.4828 63.5,23C 57.837,20.5526 54.6704,22.3859 54,28.5C 53.3086,26.1088 52.3086,26.1088 51,28.5C 50.3741,26.0087 49.5407,26.0087 48.5,28.5C 47.8654,24.9323 46.8654,21.5989 45.5,18.5C 49.2976,12.2888 47.6309,9.78876 40.5,11C 41.3344,13.7014 41.6678,16.2014 41.5,18.5C 42.9247,20.2535 44.5914,21.9201 46.5,23.5C 44.5409,25.5541 43.0409,27.8874 42,30.5C 42.6081,28.3159 41.9414,26.3159 40,24.5C 39.6667,26.1667 39.3333,27.8333 39,29.5C 31.5592,34.4439 25.3926,40.4439 20.5,47.5C 19.5,47.5 18.5,47.5 17.5,47.5C 17.6495,48.552 17.4828,49.552 17,50.5C 14.8124,52.3806 12.9791,54.5472 11.5,57C 7.10096,63.636 3.10096,70.4693 -0.5,77.5C -0.5,51.5 -0.5,25.5 -0.5,-0.5 Z"/></g>
<g><path style="opacity:1" fill="#535353" d="M 45.5,18.5 C 44.1667,18.5 42.8333,18.5 41.5,18.5C 41.6678,16.2014 41.3344,13.7014 40.5,11C 47.6309,9.78876 49.2976,12.2888 45.5,18.5 Z"/></g>
<g><path style="opacity:1" fill="#fc9730" d="M 12.5,10.5 C 16.5546,10.1758 20.5546,10.5091 24.5,11.5C 22.5,11.8333 20.5,12.1667 18.5,12.5C 16.0478,12.4609 14.0478,11.7943 12.5,10.5 Z"/></g>
<g><path style="opacity:1" fill="#585858" d="M 55.5,10.5 C 56.3764,10.3691 57.0431,10.7025 57.5,11.5C 58.2135,13.8111 59.2135,15.9777 60.5,18C 58.8654,18.5396 57.5321,18.0396 56.5,16.5C 55.8333,17.1667 55.1667,17.8333 54.5,18.5C 53.8264,15.8118 54.1597,13.1451 55.5,10.5 Z"/></g>
<g><path style="opacity:1" fill="#4a4a4a" d="M 31.5,11.5 C 32.2506,10.4265 33.2506,10.2599 34.5,11C 36.8759,15.4471 37.5426,15.4471 36.5,11C 37.5,10.3333 38.5,10.3333 39.5,11C 38.7256,13.405 38.2256,15.905 38,18.5C 36.6152,17.4495 35.6152,16.1161 35,14.5C 34.51,15.7932 34.3433,17.1266 34.5,18.5C 33.448,18.6495 32.448,18.4828 31.5,18C 32.8112,15.7265 32.8112,13.5598 31.5,11.5 Z"/></g>
<g><path style="opacity:1" fill="#dedede" d="M 43.5,11.5 C 45.9238,13.2276 46.0904,15.2276 44,17.5C 43.5045,15.5273 43.3379,13.5273 43.5,11.5 Z"/></g>
<g><path style="opacity:1" fill="#e3e3e3" d="M 206.5,103.5 C 206.5,114.167 206.5,124.833 206.5,135.5C 204.827,140.99 203.327,146.657 202,152.5C 199.816,157.375 197.816,162.375 196,167.5C 190.914,175.507 186.08,182.507 181.5,188.5C 181.709,189.086 182.043,189.586 182.5,190C 177.58,192.255 173.58,195.588 170.5,200C 172.701,200.777 172.701,201.944 170.5,203.5C 169.304,203.154 169.304,202.654 170.5,202C 168.37,200.436 166.37,200.436 164.5,202C 168.608,202.386 170.108,204.553 169,208.5C 168,205.833 167,205.833 166,208.5C 165.34,206.676 164.173,205.343 162.5,204.5C 162.027,201.303 161.361,198.137 160.5,195C 160.164,193.97 159.497,193.47 158.5,193.5C 158.5,193.167 158.5,192.833 158.5,192.5C 160.048,192.179 160.715,191.179 160.5,189.5C 161.222,189.918 161.722,190.584 162,191.5C 162.49,190.207 162.657,188.873 162.5,187.5C 165.166,187.067 167.832,186.567 170.5,186C 168.527,185.505 166.527,185.338 164.5,185.5C 164.263,184.209 164.596,183.209 165.5,182.5C 166.334,183.748 167.667,184.415 169.5,184.5C 172.767,183.497 175.933,181.163 179,177.5C 198.535,149.484 203.202,119.151 193,86.5C 185.111,66.947 172.444,51.2804 155,39.5C 149.38,35.94 143.547,32.7733 137.5,30C 129.16,27.8794 120.827,25.7128 112.5,23.5C 106.635,24.1463 100.802,24.813 95,25.5C 94.3828,24.5509 94.5494,23.7175 95.5,23C 92.3432,21.831 89.0099,21.831 85.5,23C 84.4464,24.3876 84.2797,25.8876 85,27.5C 85.3095,26.2341 85.8095,25.0674 86.5,24C 88.8333,23.3333 91.1667,23.3333 93.5,24C 92.0091,26.0217 92.3424,27.6883 94.5,29C 92.2913,30.6907 90.4579,30.524 89,28.5C 86.2368,31.288 83.9034,30.9547 82,27.5C 79.6425,30.8219 77.1425,31.1552 74.5,28.5C 77.0972,28.2792 77.0972,27.7792 74.5,27C 75.7839,26.3162 76.9505,26.4829 78,27.5C 78.4652,26.0692 79.2986,24.9025 80.5,24C 78.8016,24.4969 77.1349,24.3302 75.5,23.5C 73.8035,24.3636 72.6368,25.6969 72,27.5C 71.3333,26.5 71.3333,25.5 72,24.5C 75.4675,22.2828 75.3008,20.4494 71.5,19C 73.3668,18.2888 74.8668,18.7888 76,20.5C 76.6172,19.5509 76.4506,18.7175 75.5,18C 76.4491,17.3828 77.2825,17.5494 78,18.5C 78.3879,17.572 79.0546,16.9054 80,16.5C 83.4565,17.6392 86.7898,17.3058 90,15.5C 90.6667,16.1667 91.3333,16.8333 92,17.5C 95.5492,15.8174 99.3825,14.8174 103.5,14.5C 109.762,15.7268 116.096,16.5602 122.5,17C 168.64,28.3057 196.64,57.139 206.5,103.5 Z"/></g>
<g><path style="opacity:1" fill="#319027" d="M 12.5,15.5 C 16.5,15.5 20.5,15.5 24.5,15.5C 24.5,16.5 24.5,17.5 24.5,18.5C 20.5,18.5 16.5,18.5 12.5,18.5C 12.5,17.5 12.5,16.5 12.5,15.5 Z"/></g>
<g><path style="opacity:1" fill="#5a5a5d" d="M 27.5,11.5 C 28.209,10.596 29.209,10.2627 30.5,10.5C 30.5,13.1667 30.5,15.8333 30.5,18.5C 29.448,18.6495 28.448,18.4828 27.5,18C 28.8112,15.7265 28.8112,13.5598 27.5,11.5 Z"/></g>
<g><path style="opacity:1" fill="#585858" d="M 48.5,11.5 C 49.209,10.596 50.209,10.2627 51.5,10.5C 51.5,13.1667 51.5,15.8333 51.5,18.5C 50.448,18.6495 49.448,18.4828 48.5,18C 49.8112,15.7265 49.8112,13.5598 48.5,11.5 Z"/></g>
<g><path style="opacity:1" fill="#eaeaea" d="M 165.5,182.5 C 165.443,181.391 165.11,180.391 164.5,179.5C 165.29,178.391 165.79,177.058 166,175.5C 166.656,179.002 167.989,179.002 170,175.5C 195.829,138.215 195.996,101.215 170.5,64.5C 145.062,36.3086 113.729,27.1419 76.5,37C 70.526,39.6187 64.526,42.2854 58.5,45C 57.1772,45.8159 56.5106,46.9826 56.5,48.5C 55.5768,47.6971 54.5768,47.5304 53.5,48C 22.2138,72.5508 10.8804,103.884 19.5,142C 17.0684,143.087 17.4017,143.587 20.5,143.5C 20.7508,149.166 22.7508,153.332 26.5,156C 22.4463,157.941 22.7797,158.775 27.5,158.5C 27.3433,159.873 27.51,161.207 28,162.5C 30.5498,167.556 33.7164,172.223 37.5,176.5C 38.325,177.386 39.325,177.719 40.5,177.5C 40.5,178.5 40.5,179.5 40.5,180.5C 42.3084,180.491 43.9751,180.991 45.5,182C 44.2161,182.684 43.0495,182.517 42,181.5C 41.5357,182.094 41.369,182.761 41.5,183.5C 47.0738,185.453 53.0738,186.12 59.5,185.5C 60.0059,187.105 60.6726,187.439 61.5,186.5C 63.588,188.336 64.9213,190.669 65.5,193.5C 63.1432,193.663 60.8098,193.497 58.5,193C 57.1667,192.333 57.1667,191.667 58.5,191C 57.5509,190.383 56.7175,190.549 56,191.5C 55.6924,190.692 55.1924,190.025 54.5,189.5C 53.7379,190.628 53.0712,191.795 52.5,193C 50.567,193.251 48.7337,193.751 47,194.5C 46.147,192.065 45.147,189.731 44,187.5C 43.6824,189.061 42.8491,190.228 41.5,191C 42.3081,191.308 42.9747,191.808 43.5,192.5C 42.7528,192.736 41.9195,193.07 41,193.5C 4.85485,157.024 -1.81181,115.69 21,69.5C 29.8333,56.6667 40.6667,45.8333 53.5,37C 54.4491,36.3828 55.2825,36.5494 56,37.5C 57.9341,35.0573 60.4341,33.724 63.5,33.5C 63.3505,32.448 63.5172,31.448 64,30.5C 65.8082,30.8881 67.4748,30.8881 69,30.5C 69.7172,29.9558 70.2172,29.2891 70.5,28.5C 71.9643,29.4054 73.2976,29.4054 74.5,28.5C 77.1425,31.1552 79.6425,30.8219 82,27.5C 83.9034,30.9547 86.2368,31.288 89,28.5C 90.4579,30.524 92.2913,30.6907 94.5,29C 92.3424,27.6883 92.0091,26.0217 93.5,24C 91.1667,23.3333 88.8333,23.3333 86.5,24C 85.8095,25.0674 85.3095,26.2341 85,27.5C 84.2797,25.8876 84.4464,24.3876 85.5,23C 89.0099,21.831 92.3432,21.831 95.5,23C 94.5494,23.7175 94.3828,24.5509 95,25.5C 100.802,24.813 106.635,24.1463 112.5,23.5C 120.827,25.7128 129.16,27.8794 137.5,30C 143.547,32.7733 149.38,35.94 155,39.5C 172.444,51.2804 185.111,66.947 193,86.5C 203.202,119.151 198.535,149.484 179,177.5C 175.933,181.163 172.767,183.497 169.5,184.5C 167.667,184.415 166.334,183.748 165.5,182.5 Z"/></g>
<g><path style="opacity:1" fill="#f1f1f1" d="M 164.5,179.5 C 163.469,181.961 162.802,184.627 162.5,187.5C 162.657,188.873 162.49,190.207 162,191.5C 161.722,190.584 161.222,189.918 160.5,189.5C 160.824,185.445 160.491,181.445 159.5,177.5C 158.506,182.456 158.173,187.456 158.5,192.5C 158.5,192.833 158.5,193.167 158.5,193.5C 157.883,193.611 157.383,193.944 157,194.5C 156.24,192.503 155.74,190.837 155.5,189.5C 154.201,190.09 153.368,191.09 153,192.5C 152.667,191.833 152.333,191.167 152,190.5C 131.739,203.83 109.905,208.496 86.5,204.5C 85.6016,203.842 84.6016,203.176 83.5,202.5C 84.3601,200.069 86.0268,198.736 88.5,198.5C 89.404,197.791 89.7373,196.791 89.5,195.5C 104.167,194.833 104.167,194.167 89.5,193.5C 89.281,192.325 89.6143,191.325 90.5,190.5C 97.2294,191.325 104.229,191.658 111.5,191.5C 111.5,190.5 111.5,189.5 111.5,188.5C 104.774,188.205 98.1077,188.538 91.5,189.5C 90.4777,189.145 89.811,188.478 89.5,187.5C 91.4395,185.37 92.1062,183.036 91.5,180.5C 99.1894,179.988 106.856,179.155 114.5,178C 117.139,176.054 120.139,175.054 123.5,175C 128.213,171.644 133.213,168.811 138.5,166.5C 143.167,163.167 147.167,159.167 150.5,154.5C 153.583,148 156.916,141.666 160.5,135.5C 161.795,134.902 163.128,134.402 164.5,134C 165.061,132.324 166.061,130.991 167.5,130C 166.663,128.989 166.33,127.822 166.5,126.5C 168.401,126.754 169.067,126.42 168.5,125.5C 166.365,123.631 163.698,122.964 160.5,123.5C 161.341,121.621 161.675,119.621 161.5,117.5C 163.483,117.843 164.817,117.176 165.5,115.5C 165.833,114.833 166.167,114.167 166.5,113.5C 167.562,111.901 167.562,110.234 166.5,108.5C 167.974,107.564 168.974,106.23 169.5,104.5C 181.238,103.471 181.238,102.471 169.5,101.5C 170.5,100.167 171.5,98.8333 172.5,97.5C 174.46,96.5522 176.46,96.3855 178.5,97C 177.667,94.9189 177.667,92.7522 178.5,90.5C 176.833,90.5 175.167,90.5 173.5,90.5C 174.865,88.2492 174.531,86.2492 172.5,84.5C 170.511,83.1134 168.678,83.4468 167,85.5C 162.335,84.2609 162.502,83.4276 167.5,83C 166.833,82.6667 166.167,82.3333 165.5,82C 166.623,80.9563 167.956,80.2896 169.5,80C 166.709,78.6136 164.209,76.7802 162,74.5C 161.161,70.8203 158.994,68.3203 155.5,67C 154.624,65.414 153.624,63.914 152.5,62.5C 151.914,62.7093 151.414,63.0426 151,63.5C 148.933,60.8906 146.766,58.3906 144.5,56C 138.82,53.6546 133.154,51.1546 127.5,48.5C 122.324,47.9854 117.324,46.8187 112.5,45C 105.5,44.3333 98.5,44.3333 91.5,45C 89.0481,45.2895 86.7148,45.9562 84.5,47C 85.5243,48.3671 85.0243,49.2005 83,49.5C 81.5838,48.4267 80.2504,48.4267 79,49.5C 78.6667,48.8333 78.3333,48.1667 78,47.5C 77.2432,49.3146 76.4098,50.9812 75.5,52.5C 73.053,49.4721 70.053,48.8055 66.5,50.5C 63.3278,48.5549 59.9944,47.8882 56.5,48.5C 56.5106,46.9826 57.1772,45.8159 58.5,45C 64.526,42.2854 70.526,39.6187 76.5,37C 113.729,27.1419 145.062,36.3086 170.5,64.5C 195.996,101.215 195.829,138.215 170,175.5C 167.989,179.002 166.656,179.002 166,175.5C 165.79,177.058 165.29,178.391 164.5,179.5 Z"/></g>
<g><path style="opacity:1" fill="#f1f0f0" d="M 56.5,48.5 C 59.9944,47.8882 63.3278,48.5549 66.5,50.5C 64.8113,51.3037 63.1446,52.3037 61.5,53.5C 63.2147,55.2147 64.8814,56.8814 66.5,58.5C 65.3702,60.3146 64.7036,62.3146 64.5,64.5C 64.5,64.8333 64.5,65.1667 64.5,65.5C 64.281,66.675 64.6143,67.675 65.5,68.5C 67.6183,69.156 69.6183,69.4893 71.5,69.5C 71.5,69.8333 71.5,70.1667 71.5,70.5C 69.3618,70.703 67.6951,71.703 66.5,73.5C 65.5302,77.3734 63.8635,80.7067 61.5,83.5C 60.325,83.281 59.325,83.6143 58.5,84.5C 57.5329,86.7901 56.1996,88.7901 54.5,90.5C 52.8564,90.8102 51.8564,91.8102 51.5,93.5C 50.333,94.8148 48.833,95.4814 47,95.5C 42.6089,93.6914 39.4423,95.0247 37.5,99.5C 39.556,102.664 41.556,105.831 43.5,109C 44.1476,110.44 44.4809,111.94 44.5,113.5C 44.6309,114.376 44.2975,115.043 43.5,115.5C 40.6742,115.314 37.8409,114.981 35,114.5C 32.7461,115.239 30.5795,116.239 28.5,117.5C 30.3615,118.528 31.6948,120.028 32.5,122C 34.8409,123.4 37.1742,123.9 39.5,123.5C 37.2372,124.65 34.9038,125.65 32.5,126.5C 32.8555,127.522 33.5222,128.189 34.5,128.5C 35.1667,128.5 35.5,128.833 35.5,129.5C 36.622,132.438 38.622,134.438 41.5,135.5C 42.9349,136.985 42.7683,138.318 41,139.5C 35.5445,139.518 30.0445,139.185 24.5,138.5C 23.6143,139.325 23.281,140.325 23.5,141.5C 30.4905,141.344 37.3239,141.344 44,141.5C 46.3062,140.666 48.4729,139.666 50.5,138.5C 51.3382,138.842 51.6716,139.508 51.5,140.5C 51.2322,142.099 51.5655,143.432 52.5,144.5C 51.9035,146.398 51.9035,148.065 52.5,149.5C 52.949,154.876 53.6156,160.209 54.5,165.5C 52.369,166.314 50.0356,166.814 47.5,167C 50.1667,167.333 52.8333,167.667 55.5,168C 53.567,168.251 51.7337,168.751 50,169.5C 49.0862,168.346 48.2529,168.513 47.5,170C 48,170.5 48.5,171 49,171.5C 51.4356,170.645 53.9356,169.979 56.5,169.5C 56.5,170.167 56.8333,170.5 57.5,170.5C 57.5,171.167 57.8333,171.5 58.5,171.5C 58.6775,175.502 59.6775,179.169 61.5,182.5C 60.6457,183.632 60.6457,184.965 61.5,186.5C 60.6726,187.439 60.0059,187.105 59.5,185.5C 53.9262,183.547 47.9262,182.88 41.5,183.5C 41.369,182.761 41.5357,182.094 42,181.5C 43.0495,182.517 44.2161,182.684 45.5,182C 43.9751,180.991 42.3084,180.491 40.5,180.5C 40.5,179.5 40.5,178.5 40.5,177.5C 39.325,177.719 38.325,177.386 37.5,176.5C 33.7164,172.223 30.5498,167.556 28,162.5C 27.51,161.207 27.3433,159.873 27.5,158.5C 22.7797,158.775 22.4463,157.941 26.5,156C 22.7508,153.332 20.7508,149.166 20.5,143.5C 17.4017,143.587 17.0684,143.087 19.5,142C 10.8804,103.884 22.2138,72.5508 53.5,48C 54.5768,47.5304 55.5768,47.6971 56.5,48.5 Z"/></g>
<g><path style="opacity:1" fill="#f8a625" d="M 75.5,52.5 C 77.4559,54.1139 79.4559,55.7806 81.5,57.5C 84.5354,55.699 87.8687,55.0323 91.5,55.5C 91.6602,57.1992 91.4935,58.8659 91,60.5C 89.2863,62.0432 87.7863,63.7099 86.5,65.5C 87.3039,67.136 88.3039,68.636 89.5,70C 88.4734,70.5133 87.4734,71.0133 86.5,71.5C 82.2853,69.5636 77.6186,68.8969 72.5,69.5C 72.5394,68.4168 72.8728,67.4168 73.5,66.5C 70.5719,65.5159 67.5719,65.1826 64.5,65.5C 64.5,65.1667 64.5,64.8333 64.5,64.5C 67.5719,64.8174 70.5719,64.4841 73.5,63.5C 71.8333,62.8333 70.1667,62.1667 68.5,61.5C 69.8715,59.3802 69.2048,58.3802 66.5,58.5C 64.8814,56.8814 63.2147,55.2147 61.5,53.5C 63.1446,52.3037 64.8113,51.3037 66.5,50.5C 70.053,48.8055 73.053,49.4721 75.5,52.5 Z"/></g>
<g><path style="opacity:1" fill="#705115" d="M 76.5,58.5 C 79.8984,58.1796 83.2317,58.513 86.5,59.5C 84.8333,59.8333 83.1667,60.1667 81.5,60.5C 79.3603,60.4439 77.6936,59.7773 76.5,58.5 Z"/></g>
<g><path style="opacity:1" fill="#f9f9f8" d="M 172.5,84.5 C 170.629,84.8588 169.129,85.8588 168,87.5C 164.889,86.7069 161.723,86.8736 158.5,88C 160.935,88.0748 161.602,88.9081 160.5,90.5C 157.373,93.0241 154.04,95.3574 150.5,97.5C 151.853,98.5237 152.52,99.857 152.5,101.5C 148.766,101.323 145.099,101.656 141.5,102.5C 139.302,102.88 137.635,102.213 136.5,100.5C 136.5,98.8333 136.5,97.1667 136.5,95.5C 133.428,95.1826 130.428,95.5159 127.5,96.5C 129.045,97.4519 130.712,97.7852 132.5,97.5C 132.5,98.5 132.5,99.5 132.5,100.5C 133.405,101.964 133.405,103.298 132.5,104.5C 128.64,105.032 124.64,104.865 120.5,104C 117.364,102.678 114.364,101.178 111.5,99.5C 104.506,98.9465 98.1724,96.6132 92.5,92.5C 92.1658,89.812 92.8325,87.4786 94.5,85.5C 96.604,85.7989 98.604,85.4656 100.5,84.5C 98.9547,83.5481 97.288,83.2148 95.5,83.5C 94.7095,82.5987 93.7095,81.9321 92.5,81.5C 90.6597,79.3311 88.3263,77.9977 85.5,77.5C 85.6747,75.3792 85.3414,73.3792 84.5,71.5C 85.1667,71.5 85.8333,71.5 86.5,71.5C 87.4734,71.0133 88.4734,70.5133 89.5,70C 88.3039,68.636 87.3039,67.136 86.5,65.5C 87.7863,63.7099 89.2863,62.0432 91,60.5C 91.4935,58.8659 91.6602,57.1992 91.5,55.5C 87.8687,55.0323 84.5354,55.699 81.5,57.5C 79.4559,55.7806 77.4559,54.1139 75.5,52.5C 76.4098,50.9812 77.2432,49.3146 78,47.5C 78.3333,48.1667 78.6667,48.8333 79,49.5C 80.2504,48.4267 81.5838,48.4267 83,49.5C 85.0243,49.2005 85.5243,48.3671 84.5,47C 86.7148,45.9562 89.0481,45.2895 91.5,45C 98.5,44.3333 105.5,44.3333 112.5,45C 117.324,46.8187 122.324,47.9854 127.5,48.5C 133.154,51.1546 138.82,53.6546 144.5,56C 146.766,58.3906 148.933,60.8906 151,63.5C 151.414,63.0426 151.914,62.7093 152.5,62.5C 153.624,63.914 154.624,65.414 155.5,67C 158.994,68.3203 161.161,70.8203 162,74.5C 164.209,76.7802 166.709,78.6136 169.5,80C 167.956,80.2896 166.623,80.9563 165.5,82C 166.167,82.3333 166.833,82.6667 167.5,83C 162.502,83.4276 162.335,84.2609 167,85.5C 168.678,83.4468 170.511,83.1134 172.5,84.5 Z"/></g>
<g><path style="opacity:1" fill="#964919" d="M 66.5,58.5 C 69.2048,58.3802 69.8715,59.3802 68.5,61.5C 70.1667,62.1667 71.8333,62.8333 73.5,63.5C 70.5719,64.4841 67.5719,64.8174 64.5,64.5C 64.7036,62.3146 65.3702,60.3146 66.5,58.5 Z"/></g>
<g><path style="opacity:1" fill="#a85013" d="M 64.5,65.5 C 67.5719,65.1826 70.5719,65.5159 73.5,66.5C 72.8728,67.4168 72.5394,68.4168 72.5,69.5C 72.1667,69.5 71.8333,69.5 71.5,69.5C 69.6183,69.4893 67.6183,69.156 65.5,68.5C 64.6143,67.675 64.281,66.675 64.5,65.5 Z"/></g>
<g><path style="opacity:1" fill="#8c771c" d="M 71.5,69.5 C 71.8333,69.5 72.1667,69.5 72.5,69.5C 77.6186,68.8969 82.2853,69.5636 86.5,71.5C 85.8333,71.5 85.1667,71.5 84.5,71.5C 80.1667,71.5 75.8333,71.5 71.5,71.5C 71.5,71.1667 71.5,70.8333 71.5,70.5C 71.5,70.1667 71.5,69.8333 71.5,69.5 Z"/></g>
<g><path style="opacity:1" fill="#eadc95" d="M 71.5,70.5 C 71.5,70.8333 71.5,71.1667 71.5,71.5C 71.0618,71.4346 70.7284,71.6012 70.5,72C 71.9451,75.2698 73.9451,78.1032 76.5,80.5C 76.5,82.5 75.5,83.5 73.5,83.5C 73.631,82.7611 73.4643,82.0944 73,81.5C 70.6587,82.629 67.992,82.629 65,81.5C 63.6244,81.6842 62.7911,82.3509 62.5,83.5C 62.1667,83.5 61.8333,83.5 61.5,83.5C 63.8635,80.7067 65.5302,77.3734 66.5,73.5C 67.6951,71.703 69.3618,70.703 71.5,70.5 Z"/></g>
<g><path style="opacity:1" fill="#e6b329" d="M 71.5,71.5 C 75.8333,71.5 80.1667,71.5 84.5,71.5C 85.3414,73.3792 85.6747,75.3792 85.5,77.5C 88.3263,77.9977 90.6597,79.3311 92.5,81.5C 88.6286,81.185 84.9619,81.5184 81.5,82.5C 80.8333,82.5 80.1667,82.5 79.5,82.5C 78.5,81.8333 77.5,81.1667 76.5,80.5C 73.9451,78.1032 71.9451,75.2698 70.5,72C 70.7284,71.6012 71.0618,71.4346 71.5,71.5 Z"/></g>
<g><path style="opacity:1" fill="#7a6d13" d="M 74.5,74.5 C 77.6868,73.1944 81.0202,73.1944 84.5,74.5C 81.1631,75.6658 77.8298,75.6658 74.5,74.5 Z"/></g>
<g><path style="opacity:1" fill="#6a6945" d="M 73.5,83.5 C 69.8333,83.5 66.1667,83.5 62.5,83.5C 62.7911,82.3509 63.6244,81.6842 65,81.5C 67.992,82.629 70.6587,82.629 73,81.5C 73.4643,82.0944 73.631,82.7611 73.5,83.5 Z"/></g>
<g><path style="opacity:1" fill="#ddc985" d="M 62.5,83.5 C 66.1667,83.5 69.8333,83.5 73.5,83.5C 72.8658,84.9468 71.6991,85.6134 70,85.5C 68.175,85.0566 66.3417,84.7233 64.5,84.5C 63.5084,84.6716 62.8417,84.3382 62.5,83.5 Z"/></g>
<g><path style="opacity:1" fill="#a87620" d="M 92.5,81.5 C 93.7095,81.9321 94.7095,82.5987 95.5,83.5C 95.1667,84.1667 94.8333,84.8333 94.5,85.5C 90.5842,85.2963 86.9175,85.2963 83.5,85.5C 82.4246,86.5624 81.4246,86.5624 80.5,85.5C 81.1272,84.5832 81.4606,83.5832 81.5,82.5C 84.9619,81.5184 88.6286,81.185 92.5,81.5 Z"/></g>
<g><path style="opacity:1" fill="#e46f1f" d="M 76.5,80.5 C 77.5,81.1667 78.5,81.8333 79.5,82.5C 78.3995,83.6049 77.7329,84.9382 77.5,86.5C 73.1667,86.5 68.8333,86.5 64.5,86.5C 64.5,85.8333 64.5,85.1667 64.5,84.5C 66.3417,84.7233 68.175,85.0566 70,85.5C 71.6991,85.6134 72.8658,84.9468 73.5,83.5C 75.5,83.5 76.5,82.5 76.5,80.5 Z"/></g>
<g><path style="opacity:1" fill="#817d79" d="M 95.5,83.5 C 97.288,83.2148 98.9547,83.5481 100.5,84.5C 98.604,85.4656 96.604,85.7989 94.5,85.5C 94.8333,84.8333 95.1667,84.1667 95.5,83.5 Z"/></g>
<g><path style="opacity:1" fill="#692f0b" d="M 64.5,86.5 C 68.8333,86.5 73.1667,86.5 77.5,86.5C 77.5,86.8333 77.5,87.1667 77.5,87.5C 74.2869,87.19 71.2869,87.5233 68.5,88.5C 66.847,88.3404 65.5137,87.6737 64.5,86.5 Z"/></g>
<g><path style="opacity:1" fill="#f4a927" d="M 94.5,85.5 C 92.8325,87.4786 92.1658,89.812 92.5,92.5C 92.1667,92.5 91.8333,92.5 91.5,92.5C 88.0026,91.0893 85.3359,88.756 83.5,85.5C 86.9175,85.2963 90.5842,85.2963 94.5,85.5 Z"/></g>
<g><path style="opacity:1" fill="#e76a16" d="M 77.5,87.5 C 77.5,88.5 77.5,89.5 77.5,90.5C 74.4669,90.1315 71.8002,90.7982 69.5,92.5C 69.5,91.8333 69.5,91.1667 69.5,90.5C 69.1667,89.8333 68.8333,89.1667 68.5,88.5C 71.2869,87.5233 74.2869,87.19 77.5,87.5 Z"/></g>
<g><path style="opacity:1" fill="#96224e" d="M 172.5,84.5 C 174.531,86.2492 174.865,88.2492 173.5,90.5C 171.777,91.8001 169.61,92.4668 167,92.5C 164.39,92.4668 162.223,91.8001 160.5,90.5C 161.602,88.9081 160.935,88.0748 158.5,88C 161.723,86.8736 164.889,86.7069 168,87.5C 169.129,85.8588 170.629,84.8588 172.5,84.5 Z"/></g>
<g><path style="opacity:1" fill="#20806f" d="M 79.5,82.5 C 80.1667,82.5 80.8333,82.5 81.5,82.5C 81.4606,83.5832 81.1272,84.5832 80.5,85.5C 81.4246,86.5624 82.4246,86.5624 83.5,85.5C 85.3359,88.756 88.0026,91.0893 91.5,92.5C 90.7375,93.2679 89.7375,93.7679 88.5,94C 90.4727,94.4955 92.4727,94.6621 94.5,94.5C 94.5,95.5 94.5,96.5 94.5,97.5C 91.1016,97.8204 87.7683,97.487 84.5,96.5C 83.7958,94.8986 82.6292,93.5652 81,92.5C 80.7599,94.8516 79.9265,96.8516 78.5,98.5C 77.8333,98.5 77.5,98.1667 77.5,97.5C 78.1239,97.0831 78.4573,96.4164 78.5,95.5C 78.2528,94.2867 77.5862,93.62 76.5,93.5C 76.5569,92.391 76.8902,91.391 77.5,90.5C 77.5,89.5 77.5,88.5 77.5,87.5C 77.5,87.1667 77.5,86.8333 77.5,86.5C 77.7329,84.9382 78.3995,83.6049 79.5,82.5 Z"/></g>
<g><path style="opacity:1" fill="#510a29" d="M 54.5,90.5 C 56.8333,90.5 59.1667,90.5 61.5,90.5C 61.5,91.5 61.5,92.5 61.5,93.5C 58.1667,93.5 54.8333,93.5 51.5,93.5C 51.8564,91.8102 52.8564,90.8102 54.5,90.5 Z"/></g>
<g><path style="opacity:1" fill="#5a092e" d="M 69.5,90.5 C 69.5,91.1667 69.5,91.8333 69.5,92.5C 69.5,92.8333 69.5,93.1667 69.5,93.5C 67.2514,94.1303 64.9181,93.7969 62.5,92.5C 62.8333,91.5 63.5,90.8333 64.5,90.5C 66.0026,91.0522 67.6693,91.0522 69.5,90.5 Z"/></g>
<g><path style="opacity:1" fill="#723510" d="M 77.5,90.5 C 76.8902,91.391 76.5569,92.391 76.5,93.5C 74.8333,93.5 73.1667,93.5 71.5,93.5C 70.8333,93.5 70.1667,93.5 69.5,93.5C 69.5,93.1667 69.5,92.8333 69.5,92.5C 71.8002,90.7982 74.4669,90.1315 77.5,90.5 Z"/></g>
<g><path style="opacity:1" fill="#e4601e" d="M 71.5,93.5 C 73.1667,93.5 74.8333,93.5 76.5,93.5C 77.5862,93.62 78.2528,94.2867 78.5,95.5C 78.4573,96.4164 78.1239,97.0831 77.5,97.5C 76.2436,97.0962 75.0769,96.4295 74,95.5C 71.9223,96.943 71.0889,96.2763 71.5,93.5 Z"/></g>
<g><path style="opacity:1" fill="#cd2162" d="M 160.5,90.5 C 162.223,91.8001 164.39,92.4668 167,92.5C 169.61,92.4668 171.777,91.8001 173.5,90.5C 175.167,90.5 176.833,90.5 178.5,90.5C 177.667,92.7522 177.667,94.9189 178.5,97C 176.46,96.3855 174.46,96.5522 172.5,97.5C 172.372,95.9102 171.705,94.5769 170.5,93.5C 166.865,94.3164 163.865,96.1498 161.5,99C 158.478,99.0984 155.811,99.9318 153.5,101.5C 153.167,101.5 152.833,101.5 152.5,101.5C 152.52,99.857 151.853,98.5237 150.5,97.5C 154.04,95.3574 157.373,93.0241 160.5,90.5 Z"/></g>
<g><path style="opacity:1" fill="#159881" d="M 91.5,92.5 C 91.8333,92.5 92.1667,92.5 92.5,92.5C 98.1724,96.6132 104.506,98.9465 111.5,99.5C 111.703,101.044 112.37,102.378 113.5,103.5C 112.047,105.644 112.38,107.477 114.5,109C 112.667,110.167 110.833,111.333 109,112.5C 108.805,113.819 108.972,115.153 109.5,116.5C 109.5,117.167 109.5,117.833 109.5,118.5C 108.292,119.234 106.959,119.567 105.5,119.5C 105.5,118.167 105.5,116.833 105.5,115.5C 102.995,115.02 100.662,114.02 98.5,112.5C 96.8988,113.165 95.3988,113.499 94,113.5C 93.6924,112.692 93.1924,112.025 92.5,111.5C 90.4121,112.179 88.4121,112.512 86.5,112.5C 85.8182,111.757 85.1515,111.091 84.5,110.5C 86.2463,108.466 86.5796,106.299 85.5,104C 84.552,103.517 83.552,103.351 82.5,103.5C 81.3915,102.71 80.0581,102.21 78.5,102C 79.6843,100.855 79.6843,99.6879 78.5,98.5C 79.9265,96.8516 80.7599,94.8516 81,92.5C 82.6292,93.5652 83.7958,94.8986 84.5,96.5C 87.7683,97.487 91.1016,97.8204 94.5,97.5C 94.5,96.5 94.5,95.5 94.5,94.5C 92.4727,94.6621 90.4727,94.4955 88.5,94C 89.7375,93.7679 90.7375,93.2679 91.5,92.5 Z"/></g>
<g><path style="opacity:1" fill="#52736c" d="M 136.5,100.5 C 135.167,100.5 133.833,100.5 132.5,100.5C 132.5,99.5 132.5,98.5 132.5,97.5C 130.712,97.7852 129.045,97.4519 127.5,96.5C 130.428,95.5159 133.428,95.1826 136.5,95.5C 136.5,97.1667 136.5,98.8333 136.5,100.5 Z"/></g>
<g><path style="opacity:1" fill="#d21966" d="M 61.5,83.5 C 61.8333,83.5 62.1667,83.5 62.5,83.5C 62.8417,84.3382 63.5084,84.6716 64.5,84.5C 64.5,85.1667 64.5,85.8333 64.5,86.5C 65.5137,87.6737 66.847,88.3404 68.5,88.5C 68.8333,89.1667 69.1667,89.8333 69.5,90.5C 67.6693,91.0522 66.0026,91.0522 64.5,90.5C 63.5,90.8333 62.8333,91.5 62.5,92.5C 64.9181,93.7969 67.2514,94.1303 69.5,93.5C 70.1667,93.5 70.8333,93.5 71.5,93.5C 71.0889,96.2763 71.9223,96.943 74,95.5C 75.0769,96.4295 76.2436,97.0962 77.5,97.5C 77.5,98.1667 77.8333,98.5 78.5,98.5C 79.6843,99.6879 79.6843,100.855 78.5,102C 80.0581,102.21 81.3915,102.71 82.5,103.5C 79.4475,104.777 76.6141,106.444 74,108.5C 73.7287,110.807 74.8953,111.974 77.5,112C 75.9963,113.337 74.9963,115.004 74.5,117C 72.1527,118.03 69.8194,118.697 67.5,119C 69.0368,117.89 69.7035,116.39 69.5,114.5C 68.448,114.649 67.448,114.483 66.5,114C 67.3402,112.334 66.8402,112.167 65,113.5C 65.153,117.447 63.9863,120.781 61.5,123.5C 58.2751,120.214 54.9418,117.048 51.5,114C 49.1902,113.503 46.8568,113.337 44.5,113.5C 44.4809,111.94 44.1476,110.44 43.5,109C 41.556,105.831 39.556,102.664 37.5,99.5C 39.4423,95.0247 42.6089,93.6914 47,95.5C 48.833,95.4814 50.333,94.8148 51.5,93.5C 54.8333,93.5 58.1667,93.5 61.5,93.5C 61.5,92.5 61.5,91.5 61.5,90.5C 59.1667,90.5 56.8333,90.5 54.5,90.5C 56.1996,88.7901 57.5329,86.7901 58.5,84.5C 59.325,83.6143 60.325,83.281 61.5,83.5 Z"/></g>
<g><path style="opacity:1" fill="#055c52" d="M 82.5,98.5 C 87.2137,98.1734 91.8804,98.5067 96.5,99.5C 95.9747,100.192 95.3081,100.692 94.5,101C 90.5272,101.277 86.6938,101.444 83,101.5C 82.5172,100.552 82.3505,99.552 82.5,98.5 Z"/></g>
<g><path style="opacity:1" fill="#f16e1c" d="M 172.5,97.5 C 166.281,99.2629 162.281,103.263 160.5,109.5C 160.167,110.833 159.833,112.167 159.5,113.5C 159.5,113.833 159.5,114.167 159.5,114.5C 156.821,114.525 155.488,115.858 155.5,118.5C 154.065,119.79 153.065,121.456 152.5,123.5C 151.893,123.376 151.56,123.043 151.5,122.5C 151.938,122.565 152.272,122.399 152.5,122C 150.761,121.081 150.094,119.915 150.5,118.5C 151.315,117.163 152.482,116.163 154,115.5C 154.41,114.099 154.91,112.766 155.5,111.5C 155.5,111.167 155.5,110.833 155.5,110.5C 157.028,110.483 157.528,109.816 157,108.5C 155.333,107.167 153.667,105.833 152,104.5C 151.632,105.91 150.799,106.91 149.5,107.5C 146.84,106.297 144.173,106.297 141.5,107.5C 141.5,107.167 141.5,106.833 141.5,106.5C 141.5,105.167 141.5,103.833 141.5,102.5C 145.099,101.656 148.766,101.323 152.5,101.5C 153.694,102.777 155.36,103.444 157.5,103.5C 159.167,103.167 160.833,102.833 162.5,102.5C 159.527,102.713 156.527,102.379 153.5,101.5C 155.811,99.9318 158.478,99.0984 161.5,99C 163.865,96.1498 166.865,94.3164 170.5,93.5C 171.705,94.5769 172.372,95.9102 172.5,97.5 Z"/></g>
<g><path style="opacity:1" fill="#d72a6f" d="M 132.5,100.5 C 133.833,100.5 135.167,100.5 136.5,100.5C 137.635,102.213 139.302,102.88 141.5,102.5C 141.5,103.833 141.5,105.167 141.5,106.5C 140.883,106.611 140.383,106.944 140,107.5C 137.664,104.926 135.497,104.593 133.5,106.5C 133.672,105.508 133.338,104.842 132.5,104.5C 133.405,103.298 133.405,101.964 132.5,100.5 Z"/></g>
<g><path style="opacity:1" fill="#78360c" d="M 152.5,101.5 C 152.833,101.5 153.167,101.5 153.5,101.5C 156.527,102.379 159.527,102.713 162.5,102.5C 160.833,102.833 159.167,103.167 157.5,103.5C 155.36,103.444 153.694,102.777 152.5,101.5 Z"/></g>
<g><path style="opacity:1" fill="#b9295d" d="M 172.5,97.5 C 171.5,98.8333 170.5,100.167 169.5,101.5C 168.375,102.348 168.375,103.348 169.5,104.5C 168.974,106.23 167.974,107.564 166.5,108.5C 166.565,108.062 166.399,107.728 166,107.5C 164.275,108.464 162.441,109.131 160.5,109.5C 162.281,103.263 166.281,99.2629 172.5,97.5 Z"/></g>
<g><path style="opacity:1" fill="#908e8e" d="M 169.5,101.5 C 181.238,102.471 181.238,103.471 169.5,104.5C 168.375,103.348 168.375,102.348 169.5,101.5 Z"/></g>
<g><path style="opacity:1" fill="#6f0938" d="M 54.5,106.5 C 59.544,106.173 64.544,106.506 69.5,107.5C 67,107.833 64.5,108.167 62,108.5C 59.0706,108.475 56.5706,107.809 54.5,106.5 Z"/></g>
<g><path style="opacity:1" fill="#cbb981" d="M 155.5,110.5 C 151.168,110.059 146.501,109.726 141.5,109.5C 141.5,108.833 141.5,108.167 141.5,107.5C 144.173,106.297 146.84,106.297 149.5,107.5C 150.799,106.91 151.632,105.91 152,104.5C 153.667,105.833 155.333,107.167 157,108.5C 157.528,109.816 157.028,110.483 155.5,110.5 Z"/></g>
<g><path style="opacity:1" fill="#7f7a5f" d="M 141.5,109.5 C 146.501,109.726 151.168,110.059 155.5,110.5C 155.5,110.833 155.5,111.167 155.5,111.5C 150.456,111.827 145.456,111.494 140.5,110.5C 140.624,109.893 140.957,109.56 141.5,109.5 Z"/></g>
<g><path style="opacity:1" fill="#f4711b" d="M 111.5,99.5 C 114.364,101.178 117.364,102.678 120.5,104C 124.64,104.865 128.64,105.032 132.5,104.5C 133.338,104.842 133.672,105.508 133.5,106.5C 132.691,108.028 132.024,109.694 131.5,111.5C 129.088,111.694 128.088,113.027 128.5,115.5C 122.327,115.995 115.994,116.328 109.5,116.5C 108.972,115.153 108.805,113.819 109,112.5C 110.833,111.333 112.667,110.167 114.5,109C 112.38,107.477 112.047,105.644 113.5,103.5C 112.37,102.378 111.703,101.044 111.5,99.5 Z"/></g>
<g><path style="opacity:1" fill="#73360d" d="M 120.5,107.5 C 123.572,107.183 126.572,107.516 129.5,108.5C 128,108.833 126.5,109.167 125,109.5C 123.014,109.431 121.514,108.765 120.5,107.5 Z"/></g>
<g><path style="opacity:1" fill="#e6a028" d="M 166.5,108.5 C 167.562,110.234 167.562,111.901 166.5,113.5C 164.167,113.5 161.833,113.5 159.5,113.5C 159.833,112.167 160.167,110.833 160.5,109.5C 162.441,109.131 164.275,108.464 166,107.5C 166.399,107.728 166.565,108.062 166.5,108.5 Z"/></g>
<g><path style="opacity:1" fill="#7c5b16" d="M 159.5,113.5 C 161.833,113.5 164.167,113.5 166.5,113.5C 166.167,114.167 165.833,114.833 165.5,115.5C 163.5,115.5 161.5,115.5 159.5,115.5C 159.5,115.167 159.5,114.833 159.5,114.5C 159.5,114.167 159.5,113.833 159.5,113.5 Z"/></g>
<g><path style="opacity:1" fill="#facb29" d="M 131.5,111.5 C 132.854,115.459 131.521,118.126 127.5,119.5C 125.085,118.186 122.252,117.519 119,117.5C 115.748,117.519 112.915,118.186 110.5,119.5C 109.833,119.5 109.5,119.167 109.5,118.5C 109.5,117.833 109.5,117.167 109.5,116.5C 115.994,116.328 122.327,115.995 128.5,115.5C 128.088,113.027 129.088,111.694 131.5,111.5 Z"/></g>
<g><path style="opacity:1" fill="#fbc067" d="M 159.5,115.5 C 161.5,115.5 163.5,115.5 165.5,115.5C 164.817,117.176 163.483,117.843 161.5,117.5C 160.5,117.167 159.833,116.5 159.5,115.5 Z"/></g>
<g><path style="opacity:1" fill="#867416" d="M 127.5,119.5 C 127.5,120.167 127.167,120.5 126.5,120.5C 121.36,119.512 116.026,119.179 110.5,119.5C 112.915,118.186 115.748,117.519 119,117.5C 122.252,117.519 125.085,118.186 127.5,119.5 Z"/></g>
<g><path style="opacity:1" fill="#faeca0" d="M 44.5,113.5 C 46.8568,113.337 49.1902,113.503 51.5,114C 54.9418,117.048 58.2751,120.214 61.5,123.5C 61.1075,125.284 60.4408,126.95 59.5,128.5C 57.9397,130.129 58.273,131.296 60.5,132C 59.0577,132.377 58.0577,133.21 57.5,134.5C 55.5,134.5 53.5,134.5 51.5,134.5C 51.8076,132.076 51.4742,129.743 50.5,127.5C 49.7022,129.078 49.2022,130.744 49,132.5C 46.9817,133.223 45.1484,134.223 43.5,135.5C 42.8333,135.5 42.1667,135.5 41.5,135.5C 38.622,134.438 36.622,132.438 35.5,129.5C 39.8333,129.5 44.1667,129.5 48.5,129.5C 48.5,128.5 48.5,127.5 48.5,126.5C 44.1539,126.334 39.8206,126.501 35.5,127C 34.944,127.383 34.6107,127.883 34.5,128.5C 33.5222,128.189 32.8555,127.522 32.5,126.5C 34.9038,125.65 37.2372,124.65 39.5,123.5C 37.1742,123.9 34.8409,123.4 32.5,122C 31.6948,120.028 30.3615,118.528 28.5,117.5C 30.5795,116.239 32.7461,115.239 35,114.5C 37.8409,114.981 40.6742,115.314 43.5,115.5C 44.2975,115.043 44.6309,114.376 44.5,113.5 Z"/></g>
<g><path style="opacity:1" fill="#a49c6d" d="M 39.5,120.5 C 43.97,119.514 48.6367,119.181 53.5,119.5C 53.762,120.978 53.4287,122.311 52.5,123.5C 51.6143,122.675 51.281,121.675 51.5,120.5C 47.5,120.5 43.5,120.5 39.5,120.5 Z"/></g>
<g><path style="opacity:1" fill="#f8d228" d="M 82.5,103.5 C 83.552,103.351 84.552,103.517 85.5,104C 86.5796,106.299 86.2463,108.466 84.5,110.5C 85.1515,111.091 85.8182,111.757 86.5,112.5C 88.4121,112.512 90.4121,112.179 92.5,111.5C 93.1924,112.025 93.6924,112.692 94,113.5C 95.3988,113.499 96.8988,113.165 98.5,112.5C 100.662,114.02 102.995,115.02 105.5,115.5C 105.5,116.833 105.5,118.167 105.5,119.5C 103.631,120.165 101.631,120.831 99.5,121.5C 100.5,122.333 101.5,123.167 102.5,124C 100.915,126.744 98.9152,128.911 96.5,130.5C 95.6618,130.842 95.3284,131.508 95.5,132.5C 94.8333,133.167 94.1667,133.833 93.5,134.5C 92.6661,133.252 91.3328,132.585 89.5,132.5C 85.1257,133.971 80.9591,133.638 77,131.5C 70.5139,135.106 64.6806,134.106 59.5,128.5C 60.4408,126.95 61.1075,125.284 61.5,123.5C 63.9863,120.781 65.153,117.447 65,113.5C 66.8402,112.167 67.3402,112.334 66.5,114C 67.448,114.483 68.448,114.649 69.5,114.5C 69.7035,116.39 69.0368,117.89 67.5,119C 69.8194,118.697 72.1527,118.03 74.5,117C 74.9963,115.004 75.9963,113.337 77.5,112C 74.8953,111.974 73.7287,110.807 74,108.5C 76.6141,106.444 79.4475,104.777 82.5,103.5 Z"/></g>
<g><path style="opacity:1" fill="#369c7e" d="M 84.5,110.5 C 84.3184,112.591 84.6518,114.591 85.5,116.5C 84.675,117.386 83.675,117.719 82.5,117.5C 81.9898,114.612 82.6565,112.279 84.5,110.5 Z"/></g>
<g><path style="opacity:1" fill="#d51a65" d="M 109.5,118.5 C 109.5,119.167 109.833,119.5 110.5,119.5C 112.85,122.196 113.516,125.196 112.5,128.5C 111.761,128.369 111.094,128.536 110.5,129C 109.915,130.302 109.249,131.469 108.5,132.5C 108.082,131.778 107.416,131.278 106.5,131C 103.183,130.502 99.8499,130.335 96.5,130.5C 98.9152,128.911 100.915,126.744 102.5,124C 101.5,123.167 100.5,122.333 99.5,121.5C 101.631,120.831 103.631,120.165 105.5,119.5C 106.959,119.567 108.292,119.234 109.5,118.5 Z"/></g>
<g><path style="opacity:1" fill="#edca2a" d="M 110.5,119.5 C 116.026,119.179 121.36,119.512 126.5,120.5C 125.292,121.234 123.959,121.567 122.5,121.5C 124.112,124.131 125.779,126.798 127.5,129.5C 126.193,128.847 124.86,128.18 123.5,127.5C 121.397,130.051 119.231,130.051 117,127.5C 115.56,128.148 114.06,128.481 112.5,128.5C 113.516,125.196 112.85,122.196 110.5,119.5 Z"/></g>
<g><path style="opacity:1" fill="#288571" d="M 159.5,114.5 C 159.5,114.833 159.5,115.167 159.5,115.5C 159.833,116.5 160.5,117.167 161.5,117.5C 161.675,119.621 161.341,121.621 160.5,123.5C 160.5,124.167 160.5,124.833 160.5,125.5C 160.5,126.5 160.5,127.5 160.5,128.5C 159.5,128.5 158.5,128.5 157.5,128.5C 156.626,125.211 155.959,121.877 155.5,118.5C 155.488,115.858 156.821,114.525 159.5,114.5 Z"/></g>
<g><path style="opacity:1" fill="#f9f9f8" d="M 141.5,106.5 C 141.5,106.833 141.5,107.167 141.5,107.5C 141.5,108.167 141.5,108.833 141.5,109.5C 140.957,109.56 140.624,109.893 140.5,110.5C 145.456,111.494 150.456,111.827 155.5,111.5C 154.91,112.766 154.41,114.099 154,115.5C 152.482,116.163 151.315,117.163 150.5,118.5C 147.148,117.447 143.815,117.447 140.5,118.5C 143.447,119.321 146.447,119.821 149.5,120C 146.774,120.182 144.107,120.682 141.5,121.5C 144.768,122.487 148.102,122.82 151.5,122.5C 151.56,123.043 151.893,123.376 152.5,123.5C 153.065,121.456 154.065,119.79 155.5,118.5C 155.959,121.877 156.626,125.211 157.5,128.5C 158.5,128.5 159.5,128.5 160.5,128.5C 160.5,127.5 160.5,126.5 160.5,125.5C 163.167,125.5 165.833,125.5 168.5,125.5C 169.067,126.42 168.401,126.754 166.5,126.5C 166.33,127.822 166.663,128.989 167.5,130C 166.061,130.991 165.061,132.324 164.5,134C 163.128,134.402 161.795,134.902 160.5,135.5C 156.916,141.666 153.583,148 150.5,154.5C 147.167,159.167 143.167,163.167 138.5,166.5C 133.213,168.811 128.213,171.644 123.5,175C 120.139,175.054 117.139,176.054 114.5,178C 106.856,179.155 99.1894,179.988 91.5,180.5C 91.5,179.833 91.1667,179.5 90.5,179.5C 91.5221,176.088 91.6888,172.421 91,168.5C 92.1707,166.384 93.6707,165.718 95.5,166.5C 96.3857,165.675 96.719,164.675 96.5,163.5C 100.836,164.424 103.336,162.757 104,158.5C 105.419,157.54 106.919,156.707 108.5,156C 111.02,153.703 113.353,151.203 115.5,148.5C 117.168,146.66 118.668,144.66 120,142.5C 120.561,143.022 121.228,143.355 122,143.5C 126.6,141.951 128.6,138.951 128,134.5C 128.816,133.177 129.983,132.511 131.5,132.5C 134.167,132.5 136.833,132.5 139.5,132.5C 139.768,130.901 139.434,129.568 138.5,128.5C 138.5,128.167 138.5,127.833 138.5,127.5C 137.417,123.915 136.751,120.249 136.5,116.5C 135.5,116.5 134.5,116.5 133.5,116.5C 133.452,113.708 134.785,111.875 137.5,111C 135.249,110.252 133.916,108.752 133.5,106.5C 135.497,104.593 137.664,104.926 140,107.5C 140.383,106.944 140.883,106.611 141.5,106.5 Z"/></g>
<g><path style="opacity:1" fill="#918987" d="M 150.5,118.5 C 150.094,119.915 150.761,121.081 152.5,122C 152.272,122.399 151.938,122.565 151.5,122.5C 148.102,122.82 144.768,122.487 141.5,121.5C 144.107,120.682 146.774,120.182 149.5,120C 146.447,119.821 143.447,119.321 140.5,118.5C 143.815,117.447 147.148,117.447 150.5,118.5 Z"/></g>
<g><path style="opacity:1" fill="#818281" d="M 160.5,123.5 C 163.698,122.964 166.365,123.631 168.5,125.5C 165.833,125.5 163.167,125.5 160.5,125.5C 160.5,124.833 160.5,124.167 160.5,123.5 Z"/></g>
<g><path style="opacity:1" fill="#7b6b14" d="M 81.5,127.5 C 85.6829,126.189 90.0162,126.189 94.5,127.5C 90.1524,128.71 85.819,128.71 81.5,127.5 Z"/></g>
<g><path style="opacity:1" fill="#ca1e63" d="M 133.5,106.5 C 133.916,108.752 135.249,110.252 137.5,111C 134.785,111.875 133.452,113.708 133.5,116.5C 134.5,116.5 135.5,116.5 136.5,116.5C 136.751,120.249 137.417,123.915 138.5,127.5C 136.896,126.713 136.229,125.38 136.5,123.5C 133.102,123.18 129.768,123.513 126.5,124.5C 129.167,125.167 131.833,125.833 134.5,126.5C 133.271,127.281 131.938,127.781 130.5,128C 133.146,128.497 135.813,128.664 138.5,128.5C 138.587,131.598 138.087,131.932 137,129.5C 136.692,130.308 136.192,130.975 135.5,131.5C 134.274,130.637 132.94,130.637 131.5,131.5C 129.938,131.267 128.605,130.6 127.5,129.5C 125.779,126.798 124.112,124.131 122.5,121.5C 123.959,121.567 125.292,121.234 126.5,120.5C 127.167,120.5 127.5,120.167 127.5,119.5C 131.521,118.126 132.854,115.459 131.5,111.5C 132.024,109.694 132.691,108.028 133.5,106.5 Z"/></g>
<g><path style="opacity:1" fill="#806e17" d="M 66.5,126.5 C 70.8839,126.174 75.2172,126.508 79.5,127.5C 77.3333,127.833 75.1667,128.167 73,128.5C 70.3897,128.467 68.223,127.8 66.5,126.5 Z"/></g>
<g><path style="opacity:1" fill="#841344" d="M 138.5,127.5 C 138.5,127.833 138.5,128.167 138.5,128.5C 135.813,128.664 133.146,128.497 130.5,128C 131.938,127.781 133.271,127.281 134.5,126.5C 131.833,125.833 129.167,125.167 126.5,124.5C 129.768,123.513 133.102,123.18 136.5,123.5C 136.229,125.38 136.896,126.713 138.5,127.5 Z"/></g>
<g><path style="opacity:1" fill="#9d9663" d="M 35.5,129.5 C 35.5,128.833 35.1667,128.5 34.5,128.5C 34.6107,127.883 34.944,127.383 35.5,127C 39.8206,126.501 44.1539,126.334 48.5,126.5C 48.5,127.5 48.5,128.5 48.5,129.5C 44.1667,129.5 39.8333,129.5 35.5,129.5 Z"/></g>
<g><path style="opacity:1" fill="#9d144e" d="M 96.5,130.5 C 99.8499,130.335 103.183,130.502 106.5,131C 107.416,131.278 108.082,131.778 108.5,132.5C 108.5,133.5 108.5,134.5 108.5,135.5C 106.486,135.392 104.82,136.058 103.5,137.5C 101.143,137.663 98.8098,137.497 96.5,137C 100.825,134.493 100.491,132.993 95.5,132.5C 95.3284,131.508 95.6618,130.842 96.5,130.5 Z"/></g>
<g><path style="opacity:1" fill="#ec9abd" d="M 138.5,128.5 C 139.434,129.568 139.768,130.901 139.5,132.5C 136.833,132.5 134.167,132.5 131.5,132.5C 131.5,132.167 131.5,131.833 131.5,131.5C 132.94,130.637 134.274,130.637 135.5,131.5C 136.192,130.975 136.692,130.308 137,129.5C 138.087,131.932 138.587,131.598 138.5,128.5 Z"/></g>
<g><path style="opacity:1" fill="#f8f8f0" d="M 51.5,134.5 C 51.1254,135.793 50.7921,137.126 50.5,138.5C 48.1667,138.5 45.8333,138.5 43.5,138.5C 43.5,137.5 43.5,136.5 43.5,135.5C 45.1484,134.223 46.9817,133.223 49,132.5C 49.2022,130.744 49.7022,129.078 50.5,127.5C 51.4742,129.743 51.8076,132.076 51.5,134.5 Z"/></g>
<g><path style="opacity:1" fill="#b4a178" d="M 51.5,134.5 C 53.5,134.5 55.5,134.5 57.5,134.5C 57.6107,135.117 57.944,135.617 58.5,136C 56.2387,137.813 53.9053,139.313 51.5,140.5C 51.6716,139.508 51.3382,138.842 50.5,138.5C 50.7921,137.126 51.1254,135.793 51.5,134.5 Z"/></g>
<g><path style="opacity:1" fill="#fb7217" d="M 59.5,128.5 C 64.6806,134.106 70.5139,135.106 77,131.5C 80.9591,133.638 85.1257,133.971 89.5,132.5C 91.3328,132.585 92.6661,133.252 93.5,134.5C 94.5171,137.027 94.5171,139.527 93.5,142C 93.7591,143.261 94.4258,144.261 95.5,145C 93.1367,145.589 92.1367,147.089 92.5,149.5C 90.7868,148.365 90.1201,146.698 90.5,144.5C 87.5,143.833 84.5,143.167 81.5,142.5C 79.8171,144.89 78.4838,147.556 77.5,150.5C 72.3447,154.582 66.678,157.916 60.5,160.5C 59.0678,163.327 58.4012,166.327 58.5,169.5C 57.8333,169.5 57.5,169.833 57.5,170.5C 56.8333,170.5 56.5,170.167 56.5,169.5C 56.8432,167.517 56.1765,166.183 54.5,165.5C 53.6156,160.209 52.949,154.876 52.5,149.5C 55.3583,148.834 58.3583,148.167 61.5,147.5C 58.8929,146.682 56.2263,146.182 53.5,146C 56.6996,145.899 59.6996,145.232 62.5,144C 59.0764,143.253 55.7431,143.42 52.5,144.5C 51.5655,143.432 51.2322,142.099 51.5,140.5C 53.9053,139.313 56.2387,137.813 58.5,136C 57.944,135.617 57.6107,135.117 57.5,134.5C 58.0577,133.21 59.0577,132.377 60.5,132C 58.273,131.296 57.9397,130.129 59.5,128.5 Z"/></g>
<g><path style="opacity:1" fill="#1b927d" d="M 127.5,129.5 C 128.605,130.6 129.938,131.267 131.5,131.5C 131.5,131.833 131.5,132.167 131.5,132.5C 129.983,132.511 128.816,133.177 128,134.5C 128.6,138.951 126.6,141.951 122,143.5C 121.228,143.355 120.561,143.022 120,142.5C 118.668,144.66 117.168,146.66 115.5,148.5C 113.738,148.643 112.071,148.309 110.5,147.5C 107.128,150.855 103.128,153.188 98.5,154.5C 99.0312,152.456 100.198,150.789 102,149.5C 102.782,146.743 102.282,144.243 100.5,142C 101.549,141.508 102.549,141.674 103.5,142.5C 104.434,140.905 104.434,139.239 103.5,137.5C 104.82,136.058 106.486,135.392 108.5,135.5C 108.5,134.5 108.5,133.5 108.5,132.5C 109.249,131.469 109.915,130.302 110.5,129C 111.094,128.536 111.761,128.369 112.5,128.5C 114.06,128.481 115.56,128.148 117,127.5C 119.231,130.051 121.397,130.051 123.5,127.5C 124.86,128.18 126.193,128.847 127.5,129.5 Z"/></g>
<g><path style="opacity:1" fill="#d31866" d="M 95.5,132.5 C 100.491,132.993 100.825,134.493 96.5,137C 98.8098,137.497 101.143,137.663 103.5,137.5C 104.434,139.239 104.434,140.905 103.5,142.5C 102.549,141.674 101.549,141.508 100.5,142C 102.282,144.243 102.782,146.743 102,149.5C 100.198,150.789 99.0312,152.456 98.5,154.5C 97.5,154.5 96.5,154.5 95.5,154.5C 95.6716,153.508 95.3382,152.842 94.5,152.5C 94.573,150.973 93.9063,149.973 92.5,149.5C 92.1367,147.089 93.1367,145.589 95.5,145C 94.4258,144.261 93.7591,143.261 93.5,142C 94.5171,139.527 94.5171,137.027 93.5,134.5C 94.1667,133.833 94.8333,133.167 95.5,132.5 Z"/></g>
<g><path style="opacity:1" fill="#d9d9d9" d="M -0.5,135.5 C 2.52265,150.388 8.02265,164.388 16,177.5C 20.4727,182.978 24.9727,188.478 29.5,194C 33.0373,196.926 36.704,199.593 40.5,202C 40.1667,202.333 39.8333,202.667 39.5,203C 40.8333,203 42.1667,203 43.5,203C 44.497,208.312 47.997,211.479 54,212.5C 55.2259,212.355 56.3926,212.022 57.5,211.5C 58.6956,211.846 58.6956,212.346 57.5,213C 58.4491,213.617 59.2825,213.451 60,212.5C 61.8006,215.163 64.3006,216.997 67.5,218C 98.3344,227.29 127.668,224.624 155.5,210C 156.667,208.833 157.833,207.667 159,206.5C 159.333,207.167 159.667,207.833 160,208.5C 160.399,208.272 160.565,207.938 160.5,207.5C 164.103,208.836 164.436,208.002 161.5,205C 161.728,204.601 162.062,204.435 162.5,204.5C 164.173,205.343 165.34,206.676 166,208.5C 167,205.833 168,205.833 169,208.5C 170.108,204.553 168.608,202.386 164.5,202C 166.37,200.436 168.37,200.436 170.5,202C 169.304,202.654 169.304,203.154 170.5,203.5C 172.701,201.944 172.701,200.777 170.5,200C 173.58,195.588 177.58,192.255 182.5,190C 182.043,189.586 181.709,189.086 181.5,188.5C 186.08,182.507 190.914,175.507 196,167.5C 197.816,162.375 199.816,157.375 202,152.5C 203.327,146.657 204.827,140.99 206.5,135.5C 206.5,170.167 206.5,204.833 206.5,239.5C 137.5,239.5 68.5,239.5 -0.5,239.5C -0.5,204.833 -0.5,170.167 -0.5,135.5 Z"/></g>
<g><path style="opacity:1" fill="#faeb9d" d="M 77.5,150.5 C 77.5,151.167 77.5,151.833 77.5,152.5C 77.5,152.833 77.5,153.167 77.5,153.5C 77.237,155.891 76.5704,158.558 75.5,161.5C 76.1272,162.417 76.4606,163.417 76.5,164.5C 73.8687,165.425 73.2021,167.091 74.5,169.5C 69.1667,169.5 63.8333,169.5 58.5,169.5C 58.4012,166.327 59.0678,163.327 60.5,160.5C 66.678,157.916 72.3447,154.582 77.5,150.5 Z"/></g>
<g><path style="opacity:1" fill="#248f77" d="M 77.5,153.5 C 83.4093,154.455 89.4093,154.789 95.5,154.5C 96.9864,157.371 95.9864,158.705 92.5,158.5C 92.3068,162.449 91.8068,162.449 91,158.5C 88.2128,159.844 85.7128,161.677 83.5,164C 81.1565,165.415 78.8232,165.582 76.5,164.5C 76.4606,163.417 76.1272,162.417 75.5,161.5C 76.5704,158.558 77.237,155.891 77.5,153.5 Z"/></g>
<g><path style="opacity:1" fill="#064c41" d="M 77.5,153.5 C 77.5,153.167 77.5,152.833 77.5,152.5C 83.0132,152.892 88.6799,152.892 94.5,152.5C 95.3382,152.842 95.6716,153.508 95.5,154.5C 89.4093,154.789 83.4093,154.455 77.5,153.5 Z"/></g>
<g><path style="opacity:1" fill="#9d9d9d" d="M 31.5,148.5 C 36.7486,148.412 42.0819,148.745 47.5,149.5C 47.2907,150.086 46.9574,150.586 46.5,151C 40.144,151.398 33.8107,151.065 27.5,150C 29.0581,149.79 30.3915,149.29 31.5,148.5 Z"/></g>
<g><path style="opacity:1" fill="#b85412" d="M 52.5,149.5 C 51.9035,148.065 51.9035,146.398 52.5,144.5C 55.7431,143.42 59.0764,143.253 62.5,144C 59.6996,145.232 56.6996,145.899 53.5,146C 56.2263,146.182 58.8929,146.682 61.5,147.5C 58.3583,148.167 55.3583,148.834 52.5,149.5 Z"/></g>
<g><path style="opacity:1" fill="#22957e" d="M 92.5,149.5 C 93.9063,149.973 94.573,150.973 94.5,152.5C 88.6799,152.892 83.0132,152.892 77.5,152.5C 77.5,151.833 77.5,151.167 77.5,150.5C 78.4838,147.556 79.8171,144.89 81.5,142.5C 84.5,143.167 87.5,143.833 90.5,144.5C 90.1201,146.698 90.7868,148.365 92.5,149.5 Z"/></g>
<g><path style="opacity:1" fill="#7a7a7a" d="M 39.5,145.5 C 41.5273,145.338 43.5273,145.505 45.5,146C 43.1209,148.142 41.1209,147.976 39.5,145.5 Z"/></g>
<g><path style="opacity:1" fill="#808080" d="M 28.5,145.5 C 31.8984,145.18 35.2317,145.513 38.5,146.5C 36.8333,146.833 35.1667,147.167 33.5,147.5C 31.3603,147.444 29.6936,146.777 28.5,145.5 Z"/></g>
<g><path style="opacity:1" fill="#b35111" d="M 62.5,138.5 C 69.5,138.5 76.5,138.5 83.5,138.5C 83.5,139.5 83.5,140.5 83.5,141.5C 75.6484,141.825 67.9818,141.492 60.5,140.5C 66.1764,140.666 71.8431,140.499 77.5,140C 72.3165,139.826 67.3165,139.326 62.5,138.5 Z"/></g>
<g><path style="opacity:1" fill="#9a9a9a" d="M 41.5,135.5 C 42.1667,135.5 42.8333,135.5 43.5,135.5C 43.5,136.5 43.5,137.5 43.5,138.5C 45.8333,138.5 48.1667,138.5 50.5,138.5C 48.4729,139.666 46.3062,140.666 44,141.5C 37.3239,141.344 30.4905,141.344 23.5,141.5C 23.281,140.325 23.6143,139.325 24.5,138.5C 30.0445,139.185 35.5445,139.518 41,139.5C 42.7683,138.318 42.9349,136.985 41.5,135.5 Z"/></g>
<g><path style="opacity:1" fill="#682e0e" d="M 62.5,138.5 C 67.3165,139.326 72.3165,139.826 77.5,140C 71.8431,140.499 66.1764,140.666 60.5,140.5C 60.5,139.167 61.1667,138.5 62.5,138.5 Z"/></g>
<g><path style="opacity:1" fill="#868686" d="M 105.5,162.5 C 108.898,162.18 112.232,162.513 115.5,163.5C 113.833,163.833 112.167,164.167 110.5,164.5C 108.36,164.444 106.694,163.777 105.5,162.5 Z"/></g>
<g><path style="opacity:1" fill="#9d988f" d="M 54.5,165.5 C 56.1765,166.183 56.8432,167.517 56.5,169.5C 53.9356,169.979 51.4356,170.645 49,171.5C 48.5,171 48,170.5 47.5,170C 48.2529,168.513 49.0862,168.346 50,169.5C 51.7337,168.751 53.567,168.251 55.5,168C 52.8333,167.667 50.1667,167.333 47.5,167C 50.0356,166.814 52.369,166.314 54.5,165.5 Z"/></g>
<g><path style="opacity:1" fill="#8a7f55" d="M 58.5,169.5 C 63.8333,169.5 69.1667,169.5 74.5,169.5C 74.5,170.833 73.8333,171.5 72.5,171.5C 67.8333,171.5 63.1667,171.5 58.5,171.5C 57.8333,171.5 57.5,171.167 57.5,170.5C 57.5,169.833 57.8333,169.5 58.5,169.5 Z"/></g>
<g><path style="opacity:1" fill="#f5ab28" d="M 115.5,148.5 C 113.353,151.203 111.02,153.703 108.5,156C 106.919,156.707 105.419,157.54 104,158.5C 103.336,162.757 100.836,164.424 96.5,163.5C 96.719,164.675 96.3857,165.675 95.5,166.5C 93.6707,165.718 92.1707,166.384 91,168.5C 91.6888,172.421 91.5221,176.088 90.5,179.5C 87.0136,180.534 83.6803,181.867 80.5,183.5C 81.9426,180.683 81.2759,178.35 78.5,176.5C 77.8333,176.833 77.1667,177.167 76.5,177.5C 75.0195,175.481 73.6861,173.481 72.5,171.5C 73.8333,171.5 74.5,170.833 74.5,169.5C 73.2021,167.091 73.8687,165.425 76.5,164.5C 78.8232,165.582 81.1565,165.415 83.5,164C 85.7128,161.677 88.2128,159.844 91,158.5C 91.8068,162.449 92.3068,162.449 92.5,158.5C 95.9864,158.705 96.9864,157.371 95.5,154.5C 96.5,154.5 97.5,154.5 98.5,154.5C 103.128,153.188 107.128,150.855 110.5,147.5C 112.071,148.309 113.738,148.643 115.5,148.5 Z"/></g>
<g><path style="opacity:1" fill="#7d5a13" d="M 77.5,168.5 C 81.226,168.177 84.8927,168.511 88.5,169.5C 86.6667,169.833 84.8333,170.167 83,170.5C 80.7047,170.453 78.8714,169.787 77.5,168.5 Z"/></g>
<g><path style="opacity:1" fill="#9a6a18" d="M 76.5,171.5 C 80.8333,171.5 85.1667,171.5 89.5,171.5C 89.5,172.5 89.5,173.5 89.5,174.5C 85.8183,174.665 82.1516,174.499 78.5,174C 77.244,173.583 76.5774,172.75 76.5,171.5 Z"/></g>
<g><path style="opacity:1" fill="#7b7b7b" d="M 46.5,180.5 C 49.2469,180.187 51.9135,180.52 54.5,181.5C 53.1667,181.833 51.8333,182.167 50.5,182.5C 48.6672,182.415 47.3339,181.748 46.5,180.5 Z"/></g>
<g><path style="opacity:1" fill="#f5e79b" d="M 58.5,171.5 C 63.1667,171.5 67.8333,171.5 72.5,171.5C 73.6861,173.481 75.0195,175.481 76.5,177.5C 77.1667,177.167 77.8333,176.833 78.5,176.5C 81.2759,178.35 81.9426,180.683 80.5,183.5C 77.9669,182.146 76.3002,182.98 75.5,186C 75.9574,186.414 76.2907,186.914 76.5,187.5C 74.2933,188.635 71.9599,189.301 69.5,189.5C 66.2157,187.883 63.5491,185.55 61.5,182.5C 59.6775,179.169 58.6775,175.502 58.5,171.5 Z"/></g>
<g><path style="opacity:1" fill="#868686" d="M 41.5,183.5 C 47.9262,182.88 53.9262,183.547 59.5,185.5C 53.0738,186.12 47.0738,185.453 41.5,183.5 Z"/></g>
<g><path style="opacity:1" fill="#149580" d="M 90.5,179.5 C 91.1667,179.5 91.5,179.833 91.5,180.5C 92.1062,183.036 91.4395,185.37 89.5,187.5C 88.5184,190.962 88.185,194.629 88.5,198.5C 86.0268,198.736 84.3601,200.069 83.5,202.5C 84.6016,203.176 85.6016,203.842 86.5,204.5C 81.5708,203.305 78.5708,205.138 77.5,210C 75.6131,210.78 73.9464,210.613 72.5,209.5C 75.4704,205.016 75.137,200.682 71.5,196.5C 72.3629,195.274 72.3629,193.94 71.5,192.5C 73.924,192.808 76.2573,192.474 78.5,191.5C 75.4831,191.466 72.4831,191.466 69.5,191.5C 68.4937,190.604 68.4937,189.938 69.5,189.5C 71.9599,189.301 74.2933,188.635 76.5,187.5C 76.2907,186.914 75.9574,186.414 75.5,186C 76.3002,182.98 77.9669,182.146 80.5,183.5C 83.6803,181.867 87.0136,180.534 90.5,179.5 Z"/></g>
<g><path style="opacity:1" fill="#8e9787" d="M 164.5,179.5 C 165.11,180.391 165.443,181.391 165.5,182.5C 164.596,183.209 164.263,184.209 164.5,185.5C 166.527,185.338 168.527,185.505 170.5,186C 167.832,186.567 165.166,187.067 162.5,187.5C 162.802,184.627 163.469,181.961 164.5,179.5 Z"/></g>
<g><path style="opacity:1" fill="#797979" d="M 160.5,189.5 C 160.715,191.179 160.048,192.179 158.5,192.5C 158.173,187.456 158.506,182.456 159.5,177.5C 160.491,181.445 160.824,185.445 160.5,189.5 Z"/></g>
<g><path style="opacity:1" fill="#a2a4a4" d="M 89.5,187.5 C 89.811,188.478 90.4777,189.145 91.5,189.5C 98.1077,188.538 104.774,188.205 111.5,188.5C 111.5,189.5 111.5,190.5 111.5,191.5C 104.229,191.658 97.2294,191.325 90.5,190.5C 89.6143,191.325 89.281,192.325 89.5,193.5C 104.167,194.167 104.167,194.833 89.5,195.5C 89.7373,196.791 89.404,197.791 88.5,198.5C 88.185,194.629 88.5184,190.962 89.5,187.5 Z"/></g>
<g><path style="opacity:1" fill="#cc2668" d="M 61.5,182.5 C 63.5491,185.55 66.2157,187.883 69.5,189.5C 68.4937,189.938 68.4937,190.604 69.5,191.5C 69.8417,192.338 70.5084,192.672 71.5,192.5C 72.3629,193.94 72.3629,195.274 71.5,196.5C 75.137,200.682 75.4704,205.016 72.5,209.5C 72.1667,209.5 71.8333,209.5 71.5,209.5C 72.4908,207.877 71.8241,206.877 69.5,206.5C 69.398,202.011 68.0646,197.678 65.5,193.5C 64.9213,190.669 63.588,188.336 61.5,186.5C 60.6457,184.965 60.6457,183.632 61.5,182.5 Z"/></g>
<g><path style="opacity:1" fill="#e4e4e4" d="M 41.5,18.5 C 42.8333,18.5 44.1667,18.5 45.5,18.5C 46.8654,21.5989 47.8654,24.9323 48.5,28.5C 49.5407,26.0087 50.3741,26.0087 51,28.5C 52.3086,26.1088 53.3086,26.1088 54,28.5C 54.6704,22.3859 57.837,20.5526 63.5,23C 62.552,23.4828 61.552,23.6495 60.5,23.5C 60.3367,25.8568 60.5034,28.1902 61,30.5C 61.7096,29.0267 62.8762,28.3601 64.5,28.5C 64.5398,25.7311 64.8732,23.3977 65.5,21.5C 67.4216,23.6866 69.0883,26.0199 70.5,28.5C 70.2172,29.2891 69.7172,29.9558 69,30.5C 67.4748,30.8881 65.8082,30.8881 64,30.5C 63.5172,31.448 63.3505,32.448 63.5,33.5C 60.4341,33.724 57.9341,35.0573 56,37.5C 55.2825,36.5494 54.4491,36.3828 53.5,37C 40.6667,45.8333 29.8333,56.6667 21,69.5C -1.81181,115.69 4.85485,157.024 41,193.5C 41.9195,193.07 42.7528,192.736 43.5,192.5C 42.9747,191.808 42.3081,191.308 41.5,191C 42.8491,190.228 43.6824,189.061 44,187.5C 45.147,189.731 46.147,192.065 47,194.5C 48.7337,193.751 50.567,193.251 52.5,193C 53.0712,191.795 53.7379,190.628 54.5,189.5C 55.1924,190.025 55.6924,190.692 56,191.5C 56.7175,190.549 57.5509,190.383 58.5,191C 57.1667,191.667 57.1667,192.333 58.5,193C 60.8098,193.497 63.1432,193.663 65.5,193.5C 68.0646,197.678 69.398,202.011 69.5,206.5C 62.6553,207.167 55.6553,207.833 48.5,208.5C 56.1378,209.497 63.8045,209.831 71.5,209.5C 71.8333,209.5 72.1667,209.5 72.5,209.5C 73.9464,210.613 75.6131,210.78 77.5,210C 78.5708,205.138 81.5708,203.305 86.5,204.5C 109.905,208.496 131.739,203.83 152,190.5C 152.333,191.167 152.667,191.833 153,192.5C 153.368,191.09 154.201,190.09 155.5,189.5C 155.74,190.837 156.24,192.503 157,194.5C 157.383,193.944 157.883,193.611 158.5,193.5C 158.35,198.3 159.016,202.967 160.5,207.5C 160.565,207.938 160.399,208.272 160,208.5C 159.667,207.833 159.333,207.167 159,206.5C 157.833,207.667 156.667,208.833 155.5,210C 127.668,224.624 98.3344,227.29 67.5,218C 64.3006,216.997 61.8006,215.163 60,212.5C 59.2825,213.451 58.4491,213.617 57.5,213C 58.6956,212.346 58.6956,211.846 57.5,211.5C 56.3926,212.022 55.2259,212.355 54,212.5C 47.997,211.479 44.497,208.312 43.5,203C 42.1667,203 40.8333,203 39.5,203C 39.8333,202.667 40.1667,202.333 40.5,202C 36.704,199.593 33.0373,196.926 29.5,194C 24.9727,188.478 20.4727,182.978 16,177.5C 8.02265,164.388 2.52265,150.388 -0.5,135.5C -0.5,116.167 -0.5,96.8333 -0.5,77.5C 3.10096,70.4693 7.10096,63.636 11.5,57C 12.9791,54.5472 14.8124,52.3806 17,50.5C 17.4828,49.552 17.6495,48.552 17.5,47.5C 18.5,47.5 19.5,47.5 20.5,47.5C 25.3926,40.4439 31.5592,34.4439 39,29.5C 39.3333,27.8333 39.6667,26.1667 40,24.5C 41.9414,26.3159 42.6081,28.3159 42,30.5C 43.0409,27.8874 44.5409,25.5541 46.5,23.5C 44.5914,21.9201 42.9247,20.2535 41.5,18.5 Z"/></g>
<g><path style="opacity:1" fill="#10403e" d="M 71.5,192.5 C 70.5084,192.672 69.8417,192.338 69.5,191.5C 72.4831,191.466 75.4831,191.466 78.5,191.5C 76.2573,192.474 73.924,192.808 71.5,192.5 Z"/></g>
<g><path style="opacity:1" fill="#848484" d="M 42.5,198.5 C 48.8421,198.334 55.1754,198.5 61.5,199C 58.1841,200.13 54.6841,200.63 51,200.5C 47.8333,200.333 44.6667,200.167 41.5,200C 42.056,199.617 42.3893,199.117 42.5,198.5 Z"/></g>
<g><path style="opacity:1" fill="#898989" d="M 158.5,193.5 C 159.497,193.47 160.164,193.97 160.5,195C 161.361,198.137 162.027,201.303 162.5,204.5C 162.062,204.435 161.728,204.601 161.5,205C 164.436,208.002 164.103,208.836 160.5,207.5C 159.016,202.967 158.35,198.3 158.5,193.5 Z"/></g>
<g><path style="opacity:1" fill="#a5a3a4" d="M 69.5,206.5 C 71.8241,206.877 72.4908,207.877 71.5,209.5C 63.8045,209.831 56.1378,209.497 48.5,208.5C 55.6553,207.833 62.6553,207.167 69.5,206.5 Z"/></g>
<g><path style="opacity:1" fill="#717171" d="M 162.5,209.5 C 163.496,209.414 164.329,209.748 165,210.5C 165.93,213.362 167.597,215.695 170,217.5C 170.688,218.332 170.521,218.998 169.5,219.5C 165.665,217.147 163.332,213.814 162.5,209.5 Z"/></g>
</svg>
