<?xml version="1.0" encoding="UTF-8"?>
<!DOCTYPE svg PUBLIC "-//W3C//DTD SVG 1.1//EN" "http://www.w3.org/Graphics/SVG/1.1/DTD/svg11.dtd">
<svg xmlns="http://www.w3.org/2000/svg" version="1.1" width="218px" height="240px" style="shape-rendering:geometricPrecision; text-rendering:geometricPrecision; image-rendering:optimizeQuality; fill-rule:evenodd; clip-rule:evenodd" xmlns:xlink="http://www.w3.org/1999/xlink">
<g><path style="opacity:1" fill="#fbfbfb" d="M -0.5,-0.5 C 72.1667,-0.5 144.833,-0.5 217.5,-0.5C 217.5,30.1667 217.5,60.8333 217.5,91.5C 215.489,94.1868 213.822,94.0201 212.5,91C 210.251,90.1368 208.418,90.6368 207,92.5C 206.29,91.0267 205.124,90.3601 203.5,90.5C 202.833,95.8333 202.167,95.8333 201.5,90.5C 200.022,90.762 198.689,90.4287 197.5,89.5C 196.972,87.6639 196.306,85.9972 195.5,84.5C 195.833,83.8333 196.167,83.1667 196.5,82.5C 199.64,79.8472 203.14,77.8472 207,76.5C 210.476,79.1859 210.976,78.8525 208.5,75.5C 212.76,71.7669 212.26,68.7669 207,66.5C 206.208,64.4127 205.041,62.5793 203.5,61C 198.894,62.2623 194.227,62.7623 189.5,62.5C 188.229,64.8287 186.229,65.9953 183.5,66C 181.649,67.6837 179.982,69.5171 178.5,71.5C 175.727,72.2525 173.06,73.2525 170.5,74.5C 171.325,75.3857 172.325,75.719 173.5,75.5C 173.366,77.2915 173.699,78.9582 174.5,80.5C 169.121,81.3135 163.787,81.6468 158.5,81.5C 155.514,81.0972 152.848,80.0972 150.5,78.5C 150.507,76.3336 150.674,74.0003 151,71.5C 149.293,70.8617 147.46,70.8617 145.5,71.5C 145.5,72.5 145.5,73.5 145.5,74.5C 144.632,77.3273 144.632,80.3273 145.5,83.5C 144.551,84.1524 143.385,84.4857 142,84.5C 134.732,83.4425 127.899,81.7758 121.5,79.5C 120.614,78.675 120.281,77.675 120.5,76.5C 118.602,75.9035 116.935,75.9035 115.5,76.5C 113.914,75.5868 112.414,75.5868 111,76.5C 103.255,73.2013 95.755,69.5346 88.5,65.5C 88.5,65.1667 88.5,64.8333 88.5,64.5C 89.5574,60.1392 91.0574,56.1392 93,52.5C 90.056,51.2774 87.556,49.4441 85.5,47C 82.2026,46.7963 79.2026,45.963 76.5,44.5C 77.5,44.5 78.5,44.5 79.5,44.5C 79.6633,42.1432 79.4966,39.8098 79,37.5C 77.5187,36.5291 76.6854,35.1958 76.5,33.5C 77.7874,32.4715 78.9541,32.8048 80,34.5C 83.198,31.4833 82.8647,28.4833 79,25.5C 78.289,23.1009 78.4557,20.7676 79.5,18.5C 78.3446,17.0495 76.8446,16.0495 75,15.5C 74.885,12.9918 73.885,10.9918 72,9.5C 68.6121,10.777 65.4454,12.4436 62.5,14.5C 59.978,15.762 57.3113,16.4287 54.5,16.5C 50.0028,13.6163 46.0028,14.1163 42.5,18C 42.8887,19.618 44.222,20.7847 46.5,21.5C 45.8333,22.1667 45.1667,22.8333 44.5,23.5C 45.1089,29.4684 48.4422,33.4684 54.5,35.5C 52.8133,36.9176 50.98,38.2509 49,39.5C 49.266,44.2421 47.766,48.2421 44.5,51.5C 43.7304,53.2986 42.397,54.6319 40.5,55.5C 39.6509,57.8935 38.6509,60.2269 37.5,62.5C 33.3116,64.5222 30.3116,67.6888 28.5,72C 25.0707,73.5483 21.904,73.3816 19,71.5C 18.228,71.6448 17.5613,71.9781 17,72.5C 15.0415,74.7768 13.5415,77.2768 12.5,80C 12.4235,82.7561 13.7569,83.9228 16.5,83.5C 16.3379,85.5273 16.5045,87.5273 17,89.5C 18.0113,90.3366 19.1779,90.67 20.5,90.5C 21.6562,93.0788 22.6562,95.7455 23.5,98.5C 23.5824,100.252 22.7491,101.252 21,101.5C 14.7836,100.513 8.95026,101.513 3.5,104.5C 2.16667,104.167 0.833333,103.833 -0.5,103.5C -0.5,68.8333 -0.5,34.1667 -0.5,-0.5 Z"/></g>
<g><path style="opacity:1" fill="#59b8db" d="M 54.5,16.5 C 58.1803,20.183 61.5136,24.183 64.5,28.5C 60.6509,28.0193 58.6509,29.686 58.5,33.5C 57.3951,34.6005 56.0618,35.2671 54.5,35.5C 48.4422,33.4684 45.1089,29.4684 44.5,23.5C 45.1667,22.8333 45.8333,22.1667 46.5,21.5C 44.222,20.7847 42.8887,19.618 42.5,18C 46.0028,14.1163 50.0028,13.6163 54.5,16.5 Z"/></g>
<g><path style="opacity:1" fill="#e8a93a" d="M 76.5,33.5 C 74.1329,32.9214 72.2995,31.588 71,29.5C 68.5859,30.8557 66.4193,30.5224 64.5,28.5C 61.5136,24.183 58.1803,20.183 54.5,16.5C 57.3113,16.4287 59.978,15.762 62.5,14.5C 65.4454,12.4436 68.6121,10.777 72,9.5C 73.885,10.9918 74.885,12.9918 75,15.5C 76.8446,16.0495 78.3446,17.0495 79.5,18.5C 78.4557,20.7676 78.289,23.1009 79,25.5C 82.8647,28.4833 83.198,31.4833 80,34.5C 78.9541,32.8048 77.7874,32.4715 76.5,33.5 Z"/></g>
<g><path style="opacity:1" fill="#e2b976" d="M 68.5,12.5 C 69.8333,12.5 71.1667,12.5 72.5,12.5C 75.2465,17.848 77.5799,23.5147 79.5,29.5C 76.6845,30.1305 74.0178,29.4638 71.5,27.5C 68.504,28.8329 66.8374,27.8329 66.5,24.5C 65.448,24.6495 64.448,24.4828 63.5,24C 62.3589,21.6921 60.6922,19.8587 58.5,18.5C 62.514,17.4988 65.8473,15.4988 68.5,12.5 Z"/></g>
<g><path style="opacity:1" fill="#d5d5d5" d="M 29.5,32.5 C 33.3998,33.4299 37.3998,33.7633 41.5,33.5C 41.8333,37.5 42.1667,37.5 42.5,33.5C 44.1667,33.5 45.8333,33.5 47.5,33.5C 47.5,35.1667 47.5,36.8333 47.5,38.5C 41.4632,38.8293 35.4632,38.4959 29.5,37.5C 28.4647,35.8716 28.4647,34.205 29.5,32.5 Z"/></g>
<g><path style="opacity:1" fill="#bbaec9" d="M 64.5,28.5 C 66.4193,30.5224 68.5859,30.8557 71,29.5C 72.2995,31.588 74.1329,32.9214 76.5,33.5C 76.6854,35.1958 77.5187,36.5291 79,37.5C 79.4966,39.8098 79.6633,42.1432 79.5,44.5C 78.5,44.5 77.5,44.5 76.5,44.5C 72.352,44.8338 70.6853,47.1672 71.5,51.5C 68.615,50.6178 65.9483,49.2845 63.5,47.5C 63.8333,44.5 62.5,43.1667 59.5,43.5C 59.4506,40.9009 58.4506,38.7342 56.5,37C 57.8228,36.1841 58.4894,35.0174 58.5,33.5C 58.6509,29.686 60.6509,28.0193 64.5,28.5 Z"/></g>
<g><path style="opacity:1" fill="#c7c8c7" d="M 85.5,37.5 C 87.5,37.5 89.5,37.5 91.5,37.5C 91.8333,41.5 92.1667,41.5 92.5,37.5C 93.5,37.5 94.5,37.5 95.5,37.5C 95.8333,42.8333 96.1667,42.8333 96.5,37.5C 100.833,38.8333 105.167,38.8333 109.5,37.5C 109.5,39.1667 109.5,40.8333 109.5,42.5C 103.167,42.5 96.8333,42.5 90.5,42.5C 90.6567,41.1266 90.49,39.7932 90,38.5C 87.4079,45.3882 85.9079,45.0548 85.5,37.5 Z"/></g>
<g><path style="opacity:1" fill="#d2d2d2" d="M 185.5,43.5 C 190.729,43.996 195.562,43.996 200,43.5C 200.818,48.7937 201.318,48.7937 201.5,43.5C 202.5,43.5 203.5,43.5 204.5,43.5C 204.5,45.5 204.5,47.5 204.5,49.5C 202.801,49.3398 201.134,49.5065 199.5,50C 201.56,51.4926 201.893,53.3259 200.5,55.5C 198.554,57.087 197.054,56.7536 196,54.5C 191.925,56.1362 189.425,54.8029 188.5,50.5C 189.5,50.5 190.5,50.5 191.5,50.5C 191.833,55.8333 192.167,55.8333 192.5,50.5C 194.527,50.6621 196.527,50.4955 198.5,50C 197.4,48.977 196.067,48.477 194.5,48.5C 191.532,49.1616 188.532,49.495 185.5,49.5C 185.5,47.5 185.5,45.5 185.5,43.5 Z"/></g>
<g><path style="opacity:1" fill="#c4c4c4" d="M 20.5,50.5 C 21.7498,50.5774 22.5831,51.244 23,52.5C 25,49.8333 27,49.8333 29,52.5C 30.7542,50.75 32.9208,50.0833 35.5,50.5C 35.5,52.1667 35.5,53.8333 35.5,55.5C 32.8333,55.5 30.1667,55.5 27.5,55.5C 27.1667,51.5 26.8333,51.5 26.5,55.5C 24.5,55.5 22.5,55.5 20.5,55.5C 20.5,53.8333 20.5,52.1667 20.5,50.5 Z"/></g>
<g><path style="opacity:1" fill="#e5ce69" d="M 76.5,44.5 C 79.2026,45.963 82.2026,46.7963 85.5,47C 87.556,49.4441 90.056,51.2774 93,52.5C 91.0574,56.1392 89.5574,60.1392 88.5,64.5C 83.711,64.9338 80.0443,62.9338 77.5,58.5C 75.5914,57.6518 73.5914,57.3184 71.5,57.5C 72.0965,55.602 72.0965,53.9354 71.5,52.5C 71.5,52.1667 71.5,51.8333 71.5,51.5C 70.6853,47.1672 72.352,44.8338 76.5,44.5 Z"/></g>
<g><path style="opacity:1" fill="#cb4342" d="M 58.5,33.5 C 58.4894,35.0174 57.8228,36.1841 56.5,37C 58.4506,38.7342 59.4506,40.9009 59.5,43.5C 62.5,43.1667 63.8333,44.5 63.5,47.5C 64.7681,49.3975 64.7681,51.7308 63.5,54.5C 61.3307,55.7814 58.9974,56.7814 56.5,57.5C 53.8222,56.8246 51.1555,56.158 48.5,55.5C 47.1667,55.5 45.8333,55.5 44.5,55.5C 44.5,54.1667 44.5,52.8333 44.5,51.5C 47.766,48.2421 49.266,44.2421 49,39.5C 50.98,38.2509 52.8133,36.9176 54.5,35.5C 56.0618,35.2671 57.3951,34.6005 58.5,33.5 Z"/></g>
<g><path style="opacity:1" fill="#ab8455" d="M 63.5,47.5 C 65.9483,49.2845 68.615,50.6178 71.5,51.5C 71.5,51.8333 71.5,52.1667 71.5,52.5C 68.0139,53.8828 66.3472,56.5494 66.5,60.5C 67.4891,63.8182 68.4891,67.1516 69.5,70.5C 69.315,71.5837 68.9817,72.5837 68.5,73.5C 67.5,73.5 66.5,73.5 65.5,73.5C 65.719,72.325 65.3857,71.325 64.5,70.5C 62.8333,71.1667 61.1667,71.8333 59.5,72.5C 56.9821,69.633 55.3154,66.2997 54.5,62.5C 52.6957,61.2319 50.6957,60.5652 48.5,60.5C 48.5,58.8333 48.5,57.1667 48.5,55.5C 51.1555,56.158 53.8222,56.8246 56.5,57.5C 58.9974,56.7814 61.3307,55.7814 63.5,54.5C 64.7681,51.7308 64.7681,49.3975 63.5,47.5 Z"/></g>
<g><path style="opacity:1" fill="#cdcdcd" d="M 163.5,59.5 C 164.5,59.5 165.5,59.5 166.5,59.5C 167.032,64.797 167.866,64.797 169,59.5C 169.333,60.1667 169.667,60.8333 170,61.5C 170.71,60.0267 171.876,59.3601 173.5,59.5C 173.833,63.5 174.167,63.5 174.5,59.5C 175.5,59.5 176.5,59.5 177.5,59.5C 177.693,63.449 178.193,63.449 179,59.5C 179.798,61.2588 179.631,62.9255 178.5,64.5C 173.167,65.8333 167.833,65.8333 162.5,64.5C 161.316,62.533 161.649,60.8664 163.5,59.5 Z"/></g>
<g><path style="opacity:1" fill="#8ab540" d="M 196.5,82.5 C 196.5,81.5 196.5,80.5 196.5,79.5C 197.78,78.0687 199.447,77.4021 201.5,77.5C 200.265,75.2271 200.598,73.3938 202.5,72C 201.833,71.8333 201.167,71.6667 200.5,71.5C 196.634,72.213 192.968,73.3797 189.5,75C 187.787,76.3782 186.453,78.0448 185.5,80C 181.758,79.9184 178.091,80.085 174.5,80.5C 173.699,78.9582 173.366,77.2915 173.5,75.5C 172.325,75.719 171.325,75.3857 170.5,74.5C 173.06,73.2525 175.727,72.2525 178.5,71.5C 179.982,69.5171 181.649,67.6837 183.5,66C 186.229,65.9953 188.229,64.8287 189.5,62.5C 194.227,62.7623 198.894,62.2623 203.5,61C 205.041,62.5793 206.208,64.4127 207,66.5C 212.26,68.7669 212.76,71.7669 208.5,75.5C 210.976,78.8525 210.476,79.1859 207,76.5C 203.14,77.8472 199.64,79.8472 196.5,82.5 Z"/></g>
<g><path style="opacity:1" fill="#bdd35f" d="M 199.5,63.5 C 202.685,63.7224 203.685,65.2224 202.5,68C 208.619,68.6957 209.619,71.0291 205.5,75C 204.668,75.6877 204.002,75.521 203.5,74.5C 204.729,71.6951 203.729,70.0284 200.5,69.5C 193.858,70.7493 188.024,73.416 183,77.5C 180.584,76.6385 178.25,76.3052 176,76.5C 181.953,69.098 189.786,64.7647 199.5,63.5 Z"/></g>
<g><path style="opacity:1" fill="#4e9eb5" d="M 150.5,78.5 C 148.833,78.5 147.167,78.5 145.5,78.5C 145.5,77.1667 145.5,75.8333 145.5,74.5C 145.5,73.5 145.5,72.5 145.5,71.5C 147.46,70.8617 149.293,70.8617 151,71.5C 150.674,74.0003 150.507,76.3336 150.5,78.5 Z"/></g>
<g><path style="opacity:1" fill="#87b33f" d="M 44.5,51.5 C 44.5,52.8333 44.5,54.1667 44.5,55.5C 45.8333,55.5 47.1667,55.5 48.5,55.5C 48.5,57.1667 48.5,58.8333 48.5,60.5C 50.6957,60.5652 52.6957,61.2319 54.5,62.5C 55.3154,66.2997 56.9821,69.633 59.5,72.5C 61.1667,71.8333 62.8333,71.1667 64.5,70.5C 65.3857,71.325 65.719,72.325 65.5,73.5C 66.5,73.5 67.5,73.5 68.5,73.5C 69.449,75.7373 70.1156,78.0706 70.5,80.5C 72.099,80.2322 73.4324,80.5655 74.5,81.5C 70.5833,83.412 66.9166,85.7454 63.5,88.5C 62.2241,89.6136 62.2241,90.6136 63.5,91.5C 63.811,92.4778 64.4777,93.1445 65.5,93.5C 66.6086,92.4104 67.6086,92.4104 68.5,93.5C 65.8259,94.4991 65.1592,96.1658 66.5,98.5C 65.9747,99.1924 65.3081,99.6924 64.5,100C 65.4506,100.718 65.6172,101.551 65,102.5C 63.0565,101.193 61.2232,101.193 59.5,102.5C 58.8826,102.611 58.3826,102.944 58,103.5C 58.096,101.619 57.9293,99.9527 57.5,98.5C 54.4774,94.8369 51.8108,95.0035 49.5,99C 52.5508,103.607 51.8841,107.44 47.5,110.5C 42.394,109.061 39.394,105.727 38.5,100.5C 37.1667,100.5 35.8333,100.5 34.5,100.5C 34.0825,99.7784 33.4158,99.2784 32.5,99C 29.5184,98.502 26.5184,98.3354 23.5,98.5C 22.6562,95.7455 21.6562,93.0788 20.5,90.5C 19.1779,90.67 18.0113,90.3366 17,89.5C 16.5045,87.5273 16.3379,85.5273 16.5,83.5C 13.7569,83.9228 12.4235,82.7561 12.5,80C 13.5415,77.2768 15.0415,74.7768 17,72.5C 17.5613,71.9781 18.228,71.6448 19,71.5C 21.904,73.3816 25.0707,73.5483 28.5,72C 30.3116,67.6888 33.3116,64.5222 37.5,62.5C 38.6509,60.2269 39.6509,57.8935 40.5,55.5C 42.397,54.6319 43.7304,53.2986 44.5,51.5 Z"/></g>
<g><path style="opacity:1" fill="#bed35e" d="M 41.5,57.5 C 43.1667,57.5 44.8333,57.5 46.5,57.5C 46.5255,61.8922 48.8588,63.8922 53.5,63.5C 54.3744,66.8968 55.5411,70.2301 57,73.5C 59,74.8333 61,74.8333 63,73.5C 64.4547,75.5932 66.288,77.2599 68.5,78.5C 68.6849,80.4857 68.0182,82.4857 66.5,84.5C 64.9291,85.3094 63.2624,85.6427 61.5,85.5C 61.3796,87.1986 61.0463,88.8653 60.5,90.5C 62.1015,93.4268 63.1015,96.2602 63.5,99C 62.5,99.6667 61.5,99.6667 60.5,99C 57.9401,94.9644 54.2735,93.2978 49.5,94C 47.2944,97.4184 47.2944,100.752 49.5,104C 48.6667,105.5 47.5,106.667 46,107.5C 42.9942,105.328 40.8275,102.495 39.5,99C 34.7685,96.9706 29.7685,96.1373 24.5,96.5C 22.4567,90.7523 20.29,85.0856 18,79.5C 16.9505,80.5171 15.7839,80.6838 14.5,80C 15.6824,77.7386 17.3491,75.9053 19.5,74.5C 20.1924,75.0253 20.6924,75.6919 21,76.5C 24.2846,74.8627 27.7846,74.1961 31.5,74.5C 32.4735,69.9136 34.9735,66.247 39,63.5C 39.6552,61.3716 40.4886,59.3716 41.5,57.5 Z"/></g>
<g><path style="opacity:1" fill="#9779b0" d="M 88.5,65.5 C 95.755,69.5346 103.255,73.2013 111,76.5C 112.414,75.5868 113.914,75.5868 115.5,76.5C 116.029,78.5834 117.029,80.4167 118.5,82C 116.717,83.0665 116.217,84.5665 117,86.5C 118.074,87.6184 119.24,88.6184 120.5,89.5C 118.076,90.3519 115.742,91.3519 113.5,92.5C 110.234,92.4326 108.734,94.0992 109,97.5C 104.48,94.4106 99.4804,92.4106 94,91.5C 93.6667,91.8333 93.3333,92.1667 93,92.5C 92.221,91.2718 91.221,90.2718 90,89.5C 87.775,91.2783 85.275,91.7783 82.5,91C 82.5529,87.9175 82.2196,84.7508 81.5,81.5C 78.881,79.4269 75.881,78.4269 72.5,78.5C 72.2137,76.7231 71.5471,75.0564 70.5,73.5C 70.9512,68.7253 70.9512,64.0586 70.5,59.5C 73.4522,60.0471 76.1188,61.2138 78.5,63C 76.8988,63.2734 75.3988,63.7734 74,64.5C 73.6667,64.1667 73.3333,63.8333 73,63.5C 72.3333,65.5 72.3333,67.5 73,69.5C 74.1475,68.5419 75.1475,68.8753 76,70.5C 77.7337,69.7511 79.567,69.2511 81.5,69C 81.9302,68.0805 82.2635,67.2472 82.5,66.5C 84.9346,68.0521 86.9346,67.7188 88.5,65.5 Z"/></g>
<g><path style="opacity:1" fill="#e8a936" d="M 196.5,79.5 C 189.874,82.1205 185.54,86.7871 183.5,93.5C 182.305,95.7513 181.305,98.0846 180.5,100.5C 178.784,100.629 177.117,100.962 175.5,101.5C 175.5,100.833 175.5,100.167 175.5,99.5C 175.433,98.0413 175.766,96.7079 176.5,95.5C 178.803,92.8445 178.136,90.6778 174.5,89C 175.902,87.6575 175.569,86.8242 173.5,86.5C 171.563,87.2604 169.73,88.2604 168,89.5C 165.072,87.2495 161.906,86.9162 158.5,88.5C 157.89,87.609 157.557,86.609 157.5,85.5C 158.234,84.2921 158.567,82.9587 158.5,81.5C 163.787,81.6468 169.121,81.3135 174.5,80.5C 178.091,80.085 181.758,79.9184 185.5,80C 186.453,78.0448 187.787,76.3782 189.5,75C 192.968,73.3797 196.634,72.213 200.5,71.5C 201.167,71.6667 201.833,71.8333 202.5,72C 200.598,73.3938 200.265,75.2271 201.5,77.5C 199.447,77.4021 197.78,78.0687 196.5,79.5 Z"/></g>
<g><path style="opacity:1" fill="#e5ba74" d="M 195.5,74.5 C 196.873,74.3433 198.207,74.51 199.5,75C 195.833,77.3333 192.167,79.6667 188.5,82C 186.037,85.4646 183.204,88.6312 180,91.5C 177.616,85.6504 173.783,84.3171 168.5,87.5C 165.579,86.5934 162.579,86.2601 159.5,86.5C 159.974,83.0128 161.808,82.0128 165,83.5C 172.129,82.4369 179.295,81.6036 186.5,81C 188.864,77.8424 191.864,75.6758 195.5,74.5 Z"/></g>
<g><path style="opacity:1" fill="#a0b153" d="M 33.5,79.5 C 34.9311,79.8807 35.7645,80.8807 36,82.5C 36.4828,81.552 36.6495,80.552 36.5,79.5C 37.5,79.5 38.5,79.5 39.5,79.5C 39.8333,83.5 40.1667,83.5 40.5,79.5C 41.5,79.5 42.5,79.5 43.5,79.5C 43.6932,83.449 44.1932,83.449 45,79.5C 46,80.8333 47,82.1667 48,83.5C 48.4828,82.552 48.6495,81.552 48.5,80.5C 49.8333,80.5 51.1667,80.5 52.5,80.5C 52.4208,81.9305 52.7542,83.2638 53.5,84.5C 46.7805,85.7917 40.1138,86.125 33.5,85.5C 33.5,83.5 33.5,81.5 33.5,79.5 Z"/></g>
<g><path style="opacity:1" fill="#cc4442" d="M 145.5,83.5 C 146.043,83.56 146.376,83.8933 146.5,84.5C 145.509,85.6652 144.509,86.8319 143.5,88C 144.022,88.9503 144.689,89.7836 145.5,90.5C 144.147,91.5237 143.48,92.857 143.5,94.5C 140.23,93.4116 138.563,94.745 138.5,98.5C 136.508,98.3285 134.842,98.9951 133.5,100.5C 132.751,98.9884 131.584,97.9884 130,97.5C 124.527,100.826 118.693,101.493 112.5,99.5C 110.875,96.7844 111.208,94.4511 113.5,92.5C 115.742,91.3519 118.076,90.3519 120.5,89.5C 119.24,88.6184 118.074,87.6184 117,86.5C 116.217,84.5665 116.717,83.0665 118.5,82C 117.029,80.4167 116.029,78.5834 115.5,76.5C 116.935,75.9035 118.602,75.9035 120.5,76.5C 120.281,77.675 120.614,78.675 121.5,79.5C 127.899,81.7758 134.732,83.4425 142,84.5C 143.385,84.4857 144.551,84.1524 145.5,83.5 Z"/></g>
<g><path style="opacity:1" fill="#7e6699" d="M 196.5,79.5 C 196.5,80.5 196.5,81.5 196.5,82.5C 196.167,83.1667 195.833,83.8333 195.5,84.5C 195.483,86.5648 195.15,88.5648 194.5,90.5C 194.5,91.1667 194.167,91.5 193.5,91.5C 189.885,91.155 186.552,91.8217 183.5,93.5C 185.54,86.7871 189.874,82.1205 196.5,79.5 Z"/></g>
<g><path style="opacity:1" fill="#816499" d="M 71.5,52.5 C 72.0965,53.9354 72.0965,55.602 71.5,57.5C 73.5914,57.3184 75.5914,57.6518 77.5,58.5C 80.0443,62.9338 83.711,64.9338 88.5,64.5C 88.5,64.8333 88.5,65.1667 88.5,65.5C 86.9346,67.7188 84.9346,68.0521 82.5,66.5C 82.2635,67.2472 81.9302,68.0805 81.5,69C 79.567,69.2511 77.7337,69.7511 76,70.5C 75.1475,68.8753 74.1475,68.5419 73,69.5C 72.3333,67.5 72.3333,65.5 73,63.5C 73.3333,63.8333 73.6667,64.1667 74,64.5C 75.3988,63.7734 76.8988,63.2734 78.5,63C 76.1188,61.2138 73.4522,60.0471 70.5,59.5C 70.9512,64.0586 70.9512,68.7253 70.5,73.5C 71.5471,75.0564 72.2137,76.7231 72.5,78.5C 75.881,78.4269 78.881,79.4269 81.5,81.5C 82.2196,84.7508 82.5529,87.9175 82.5,91C 85.275,91.7783 87.775,91.2783 90,89.5C 91.221,90.2718 92.221,91.2718 93,92.5C 93.3333,92.1667 93.6667,91.8333 94,91.5C 99.4804,92.4106 104.48,94.4106 109,97.5C 108.734,94.0992 110.234,92.4326 113.5,92.5C 111.208,94.4511 110.875,96.7844 112.5,99.5C 111.566,100.568 111.232,101.901 111.5,103.5C 109.958,104.301 108.292,104.634 106.5,104.5C 106.5,102.5 106.5,100.5 106.5,98.5C 103.215,98.1073 100.382,96.7739 98,94.5C 94.7141,96.7374 91.5474,96.404 88.5,93.5C 84.7377,95.0904 81.2377,94.757 78,92.5C 79.178,95.6169 79.5114,98.9503 79,102.5C 77.9326,101.809 76.7659,101.309 75.5,101C 74.4506,97.8545 74.6173,94.6878 76,91.5C 77.417,90.9221 78.2504,89.9221 78.5,88.5C 81.9962,83.5191 80.6629,81.1857 74.5,81.5C 73.4324,80.5655 72.099,80.2322 70.5,80.5C 70.1156,78.0706 69.449,75.7373 68.5,73.5C 68.9817,72.5837 69.315,71.5837 69.5,70.5C 68.4891,67.1516 67.4891,63.8182 66.5,60.5C 66.3472,56.5494 68.0139,53.8828 71.5,52.5 Z"/></g>
<g><path style="opacity:1" fill="#dc90b4" d="M 176.5,95.5 C 170.915,94.712 165.248,94.212 159.5,94C 158.572,93.6121 157.905,92.9454 157.5,92C 157.989,90.8615 158.322,89.6948 158.5,88.5C 161.906,86.9162 165.072,87.2495 168,89.5C 169.73,88.2604 171.563,87.2604 173.5,86.5C 175.569,86.8242 175.902,87.6575 174.5,89C 178.136,90.6778 178.803,92.8445 176.5,95.5 Z"/></g>
<g><path style="opacity:1" fill="#e74e4e" d="M 120.5,82.5 C 126.208,83.6489 131.875,84.9823 137.5,86.5C 140.465,88.627 140.131,89.7937 136.5,90C 135.874,90.7504 135.374,91.5838 135,92.5C 134.506,90.8659 134.34,89.1992 134.5,87.5C 133.5,87.5 132.5,87.5 131.5,87.5C 131.167,91.5 130.833,91.5 130.5,87.5C 128.799,87.9662 127.299,87.9662 126,87.5C 125.505,89.4727 125.338,91.4727 125.5,93.5C 132.134,93.6768 132.134,94.1768 125.5,95C 125.957,95.414 126.291,95.914 126.5,96.5C 125.5,96.8333 124.5,97.1667 123.5,97.5C 120.919,96.5439 118.419,96.5439 116,97.5C 115.25,96.8742 114.416,96.3742 113.5,96C 115.522,92.4656 118.522,90.9656 122.5,91.5C 122.5,90.1667 122.5,88.8333 122.5,87.5C 121.5,87.5 120.5,87.5 119.5,87.5C 119.629,85.7839 119.962,84.1172 120.5,82.5 Z"/></g>
<g><path style="opacity:1" fill="#e592bd" d="M 78.5,88.5 C 78.2504,89.9221 77.417,90.9221 76,91.5C 74.6173,94.6878 74.4506,97.8545 75.5,101C 76.7659,101.309 77.9326,101.809 79,102.5C 79.5114,98.9503 79.178,95.6169 78,92.5C 81.2377,94.757 84.7377,95.0904 88.5,93.5C 91.5474,96.404 94.7141,96.7374 98,94.5C 100.382,96.7739 103.215,98.1073 106.5,98.5C 106.5,100.5 106.5,102.5 106.5,104.5C 103.881,104.768 101.381,104.435 99,103.5C 98.51,104.793 98.3433,106.127 98.5,107.5C 103.364,108.232 103.697,109.898 99.5,112.5C 98.424,109.266 97.7573,105.932 97.5,102.5C 99.924,102.808 102.257,102.474 104.5,101.5C 103.636,99.8035 102.303,98.6368 100.5,98C 94.2094,98.025 87.8761,97.525 81.5,96.5C 81.5,98.8333 81.5,101.167 81.5,103.5C 72.3316,103.199 69.9982,98.8658 74.5,90.5C 75.5237,89.1468 76.857,88.4802 78.5,88.5 Z"/></g>
<g><path style="opacity:1" fill="#d2d1d2" d="M 195.5,84.5 C 196.306,85.9972 196.972,87.6639 197.5,89.5C 198.689,90.4287 200.022,90.762 201.5,90.5C 202.167,95.8333 202.833,95.8333 203.5,90.5C 205.124,90.3601 206.29,91.0267 207,92.5C 208.418,90.6368 210.251,90.1368 212.5,91C 213.822,94.0201 215.489,94.1868 217.5,91.5C 217.5,92.1667 217.5,92.8333 217.5,93.5C 216.15,94.4831 215.15,95.8164 214.5,97.5C 213.808,96.9747 213.308,96.3081 213,95.5C 207.225,96.5929 201.391,96.5929 195.5,95.5C 195.784,93.5853 195.451,91.9187 194.5,90.5C 195.15,88.5648 195.483,86.5648 195.5,84.5 Z"/></g>
<g><path style="opacity:1" fill="#f9f9f9" d="M 194.5,90.5 C 195.451,91.9187 195.784,93.5853 195.5,95.5C 201.391,96.5929 207.225,96.5929 213,95.5C 213.308,96.3081 213.808,96.9747 214.5,97.5C 215.15,95.8164 216.15,94.4831 217.5,93.5C 217.5,121.167 217.5,148.833 217.5,176.5C 216.778,176.082 216.278,175.416 216,174.5C 215.389,169.504 214.889,164.504 214.5,159.5C 213.325,159.719 212.325,159.386 211.5,158.5C 208.954,152.878 207.454,153.212 207,159.5C 206.586,159.957 206.086,160.291 205.5,160.5C 204.742,159.189 203.742,158.689 202.5,159C 202.833,159.333 203.167,159.667 203.5,160C 201.895,161.36 200.395,162.86 199,164.5C 196.626,161.712 195.293,162.046 195,165.5C 193.667,164.833 192.667,163.833 192,162.5C 191.107,163.711 190.274,163.711 189.5,162.5C 192.614,157.39 193.114,152.057 191,146.5C 189.133,144.192 188.133,141.525 188,138.5C 183.559,135.328 179.892,131.995 177,128.5C 174.502,125.899 175.002,124.565 178.5,124.5C 178.543,120.107 178.043,119.774 177,123.5C 176.259,122.359 175.425,122.359 174.5,123.5C 173.96,120.214 172.794,117.214 171,114.5C 171.152,112.481 171.652,110.481 172.5,108.5C 172.856,106.81 173.856,105.81 175.5,105.5C 176.651,110.09 177.484,114.757 178,119.5C 178.667,118.167 179.333,118.167 180,119.5C 181.75,114.292 182.917,108.958 183.5,103.5C 185.5,103.833 187.5,104.167 189.5,104.5C 190.008,101.148 191.342,98.1485 193.5,95.5C 192.193,94.135 192.193,92.8016 193.5,91.5C 194.167,91.5 194.5,91.1667 194.5,90.5 Z"/></g>
<g><path style="opacity:1" fill="#dd8db5" d="M 99.5,112.5 C 97.2694,114.515 95.2694,116.848 93.5,119.5C 93.1667,120.833 92.8333,122.167 92.5,123.5C 90.1067,122.05 87.44,121.383 84.5,121.5C 81.4127,122.117 78.4127,122.117 75.5,121.5C 73.8273,123.086 71.8273,123.753 69.5,123.5C 69.5,122.5 69.5,121.5 69.5,120.5C 68.1266,120.343 66.7932,120.51 65.5,121C 64.2744,122.635 62.941,124.135 61.5,125.5C 55.8333,124.299 50.5,122.299 45.5,119.5C 45.4129,116.261 46.0795,113.261 47.5,110.5C 51.8841,107.44 52.5508,103.607 49.5,99C 51.8108,95.0035 54.4774,94.8369 57.5,98.5C 56.3063,100.873 55.973,103.207 56.5,105.5C 58.2131,105.121 59.2131,104.121 59.5,102.5C 61.2232,101.193 63.0565,101.193 65,102.5C 65.6172,101.551 65.4506,100.718 64.5,100C 65.3081,99.6924 65.9747,99.1924 66.5,98.5C 65.1592,96.1658 65.8259,94.4991 68.5,93.5C 67.6086,92.4104 66.6086,92.4104 65.5,93.5C 64.4777,93.1445 63.811,92.4778 63.5,91.5C 65.8056,91.0074 68.139,90.6741 70.5,90.5C 71.0934,93.5959 70.0934,95.9292 67.5,97.5C 68.2483,99.4159 68.2483,101.416 67.5,103.5C 63.4922,103.36 59.8256,104.36 56.5,106.5C 55.4461,106.32 54.4461,105.987 53.5,105.5C 51.6187,108.886 49.952,112.386 48.5,116C 49.1476,117.44 49.4809,118.94 49.5,120.5C 53.3504,121.026 57.1838,121.693 61,122.5C 62.8596,120.404 65.1929,119.404 68,119.5C 75.7187,119.803 83.2187,120.137 90.5,120.5C 91.9213,117.991 93.5879,115.657 95.5,113.5C 96.8605,113.212 98.1938,112.879 99.5,112.5 Z"/></g>
<g><path style="opacity:1" fill="#977b66" d="M 57.5,98.5 C 57.9293,99.9527 58.096,101.619 58,103.5C 58.3826,102.944 58.8826,102.611 59.5,102.5C 59.2131,104.121 58.2131,105.121 56.5,105.5C 55.973,103.207 56.3063,100.873 57.5,98.5 Z"/></g>
<g><path style="opacity:1" fill="#8ab63e" d="M 143.5,94.5 C 144.393,100.408 142.06,104.075 136.5,105.5C 135.325,105.719 134.325,105.386 133.5,104.5C 131.931,98.7416 128.931,97.9083 124.5,102C 122.231,102.758 120.064,102.591 118,101.5C 117.22,103.387 117.387,105.054 118.5,106.5C 118.586,108.677 119.253,110.677 120.5,112.5C 120.291,113.086 119.957,113.586 119.5,114C 122.451,114.096 125.118,114.929 127.5,116.5C 128.624,115.086 129.624,113.586 130.5,112C 129.552,111.517 128.552,111.351 127.5,111.5C 127.5,109.833 127.5,108.167 127.5,106.5C 128.492,106.328 129.158,106.662 129.5,107.5C 131.327,110.237 133.494,112.904 136,115.5C 136.692,116.437 136.525,117.103 135.5,117.5C 134.193,116.847 132.86,116.18 131.5,115.5C 130.833,116.833 130.167,118.167 129.5,119.5C 127.465,118.959 125.465,118.292 123.5,117.5C 123.709,116.914 124.043,116.414 124.5,116C 122.432,115.313 120.432,115.48 118.5,116.5C 117.478,116.145 116.811,115.478 116.5,114.5C 117.091,113.849 117.757,113.182 118.5,112.5C 117.355,108.527 115.022,105.527 111.5,103.5C 111.232,101.901 111.566,100.568 112.5,99.5C 118.693,101.493 124.527,100.826 130,97.5C 131.584,97.9884 132.751,98.9884 133.5,100.5C 134.842,98.9951 136.508,98.3285 138.5,98.5C 138.563,94.745 140.23,93.4116 143.5,94.5 Z"/></g>
<g><path style="opacity:1" fill="#58b4d6" d="M 193.5,91.5 C 192.193,92.8016 192.193,94.135 193.5,95.5C 191.342,98.1485 190.008,101.148 189.5,104.5C 187.5,104.167 185.5,103.833 183.5,103.5C 181.5,103.5 180.5,102.5 180.5,100.5C 181.305,98.0846 182.305,95.7513 183.5,93.5C 186.552,91.8217 189.885,91.155 193.5,91.5 Z"/></g>
<g><path style="opacity:1" fill="#f7f7f6" d="M 157.5,85.5 C 157.557,86.609 157.89,87.609 158.5,88.5C 158.322,89.6948 157.989,90.8615 157.5,92C 157.905,92.9454 158.572,93.6121 159.5,94C 165.248,94.212 170.915,94.712 176.5,95.5C 175.766,96.7079 175.433,98.0413 175.5,99.5C 172.948,100.693 170.448,102.027 168,103.5C 167.36,105.265 167.527,106.932 168.5,108.5C 167.889,116.146 166.389,116.146 164,108.5C 163.282,107.549 162.449,107.383 161.5,108C 162.167,110.667 162.833,113.333 163.5,116C 162.382,117.074 161.382,118.24 160.5,119.5C 159.833,118.167 159.167,116.833 158.5,115.5C 157.13,117.127 155.63,118.794 154,120.5C 153.617,119.944 153.117,119.611 152.5,119.5C 152.267,114.669 151.267,110.003 149.5,105.5C 150.309,103.929 150.643,102.262 150.5,100.5C 148.286,100.709 146.619,99.876 145.5,98C 147.063,95.9402 149.063,94.4402 151.5,93.5C 149.486,91.8171 147.82,89.8171 146.5,87.5C 147.145,86.354 147.978,85.354 149,84.5C 151.105,85.3114 153.105,86.3114 155,87.5C 156.011,86.9444 156.844,86.2778 157.5,85.5 Z"/></g>
<g><path style="opacity:1" fill="#c8b55b" d="M 175.5,99.5 C 175.5,100.167 175.5,100.833 175.5,101.5C 175.5,102.833 175.5,104.167 175.5,105.5C 173.856,105.81 172.856,106.81 172.5,108.5C 171.778,108.918 171.278,109.584 171,110.5C 170.583,109.244 169.75,108.577 168.5,108.5C 167.527,106.932 167.36,105.265 168,103.5C 170.448,102.027 172.948,100.693 175.5,99.5 Z"/></g>
<g><path style="opacity:1" fill="#9fb054" d="M 136.5,105.5 C 134.485,106.924 132.152,107.59 129.5,107.5C 129.158,106.662 128.492,106.328 127.5,106.5C 124.5,106.5 121.5,106.5 118.5,106.5C 117.387,105.054 117.22,103.387 118,101.5C 120.064,102.591 122.231,102.758 124.5,102C 128.931,97.9083 131.931,98.7416 133.5,104.5C 134.325,105.386 135.325,105.719 136.5,105.5 Z"/></g>
<g><path style="opacity:1" fill="#c8c8c8" d="M 196.5,102.5 C 200.167,102.5 203.833,102.5 207.5,102.5C 207.849,105.045 207.016,107.045 205,108.5C 201.397,107.973 197.564,107.64 193.5,107.5C 193.67,106.178 193.337,105.011 192.5,104C 194.108,103.342 195.275,103.842 196,105.5C 196.483,104.552 196.649,103.552 196.5,102.5 Z"/></g>
<g><path style="opacity:1" fill="#cfba5c" d="M 23.5,98.5 C 26.5184,98.3354 29.5184,98.502 32.5,99C 33.4158,99.2784 34.0825,99.7784 34.5,100.5C 32.704,101.299 30.704,101.299 28.5,100.5C 22.5009,103.611 16.1675,104.777 9.5,104C 7.64991,105.845 7.31658,107.845 8.5,110C 12.848,110.415 17.1813,110.249 21.5,109.5C 20.9344,114.397 18.2678,117.397 13.5,118.5C 13.5,119.5 13.5,120.5 13.5,121.5C 10.274,120.691 8.77398,118.691 9,115.5C 10.3876,116.554 11.8876,116.72 13.5,116C 15.3975,115.1 17.0642,113.934 18.5,112.5C 16.6351,111.334 14.9684,111.667 13.5,113.5C 11.0846,112.695 8.75127,111.695 6.5,110.5C 6.01465,107.493 5.01465,105.493 3.5,104.5C 8.95026,101.513 14.7836,100.513 21,101.5C 22.7491,101.252 23.5824,100.252 23.5,98.5 Z"/></g>
<g><path style="opacity:1" fill="#bbd25c" d="M 118.5,106.5 C 121.5,106.5 124.5,106.5 127.5,106.5C 127.5,108.167 127.5,109.833 127.5,111.5C 128.552,111.351 129.552,111.517 130.5,112C 129.624,113.586 128.624,115.086 127.5,116.5C 125.118,114.929 122.451,114.096 119.5,114C 119.957,113.586 120.291,113.086 120.5,112.5C 119.253,110.677 118.586,108.677 118.5,106.5 Z"/></g>
<g><path style="opacity:1" fill="#c5403e" d="M 180.5,100.5 C 180.5,102.5 181.5,103.5 183.5,103.5C 182.917,108.958 181.75,114.292 180,119.5C 179.333,118.167 178.667,118.167 178,119.5C 177.484,114.757 176.651,110.09 175.5,105.5C 175.5,104.167 175.5,102.833 175.5,101.5C 177.117,100.962 178.784,100.629 180.5,100.5 Z"/></g>
<g><path style="opacity:1" fill="#b4a8c3" d="M 145.5,74.5 C 145.5,75.8333 145.5,77.1667 145.5,78.5C 147.167,78.5 148.833,78.5 150.5,78.5C 152.848,80.0972 155.514,81.0972 158.5,81.5C 158.567,82.9587 158.234,84.2921 157.5,85.5C 156.844,86.2778 156.011,86.9444 155,87.5C 153.105,86.3114 151.105,85.3114 149,84.5C 147.978,85.354 147.145,86.354 146.5,87.5C 147.82,89.8171 149.486,91.8171 151.5,93.5C 149.063,94.4402 147.063,95.9402 145.5,98C 146.619,99.876 148.286,100.709 150.5,100.5C 150.643,102.262 150.309,103.929 149.5,105.5C 151.267,110.003 152.267,114.669 152.5,119.5C 152.389,120.117 152.056,120.617 151.5,121C 149.231,121.758 147.064,121.591 145,120.5C 143.89,122.037 142.39,122.703 140.5,122.5C 140.631,121.761 140.464,121.094 140,120.5C 138.348,119.601 136.848,118.601 135.5,117.5C 136.525,117.103 136.692,116.437 136,115.5C 133.494,112.904 131.327,110.237 129.5,107.5C 132.152,107.59 134.485,106.924 136.5,105.5C 142.06,104.075 144.393,100.408 143.5,94.5C 143.48,92.857 144.147,91.5237 145.5,90.5C 144.689,89.7836 144.022,88.9503 143.5,88C 144.509,86.8319 145.509,85.6652 146.5,84.5C 146.376,83.8933 146.043,83.56 145.5,83.5C 144.632,80.3273 144.632,77.3273 145.5,74.5 Z"/></g>
<g><path style="opacity:1" fill="#e8b4cf" d="M 74.5,81.5 C 80.6629,81.1857 81.9962,83.5191 78.5,88.5C 76.857,88.4802 75.5237,89.1468 74.5,90.5C 69.9982,98.8658 72.3316,103.199 81.5,103.5C 81.5,101.167 81.5,98.8333 81.5,96.5C 87.8761,97.525 94.2094,98.025 100.5,98C 102.303,98.6368 103.636,99.8035 104.5,101.5C 102.257,102.474 99.924,102.808 97.5,102.5C 97.7573,105.932 98.424,109.266 99.5,112.5C 98.1938,112.879 96.8605,113.212 95.5,113.5C 93.5879,115.657 91.9213,117.991 90.5,120.5C 83.2187,120.137 75.7187,119.803 68,119.5C 65.1929,119.404 62.8596,120.404 61,122.5C 57.1838,121.693 53.3504,121.026 49.5,120.5C 49.4809,118.94 49.1476,117.44 48.5,116C 49.952,112.386 51.6187,108.886 53.5,105.5C 54.4461,105.987 55.4461,106.32 56.5,106.5C 59.8256,104.36 63.4922,103.36 67.5,103.5C 68.2483,101.416 68.2483,99.4159 67.5,97.5C 70.0934,95.9292 71.0934,93.5959 70.5,90.5C 68.139,90.6741 65.8056,91.0074 63.5,91.5C 62.2241,90.6136 62.2241,89.6136 63.5,88.5C 66.9166,85.7454 70.5833,83.412 74.5,81.5 Z"/></g>
<g><path style="opacity:1" fill="#c8c8c8" d="M 185.5,115.5 C 186.833,115.5 188.167,115.5 189.5,115.5C 189.833,120.833 190.167,120.833 190.5,115.5C 192.167,115.5 193.833,115.5 195.5,115.5C 195.833,120.833 196.167,120.833 196.5,115.5C 197.833,115.5 199.167,115.5 200.5,115.5C 200.5,117.167 200.5,118.833 200.5,120.5C 195.985,121.29 191.652,121.123 187.5,120C 185.963,118.89 185.297,117.39 185.5,115.5 Z"/></g>
<g><path style="opacity:1" fill="#e9d16a" d="M 34.5,100.5 C 35.8333,100.5 37.1667,100.5 38.5,100.5C 39.394,105.727 42.394,109.061 47.5,110.5C 46.0795,113.261 45.4129,116.261 45.5,119.5C 42.8753,120.458 42.8753,121.624 45.5,123C 44.5,123.833 43.5,124.667 42.5,125.5C 43.6446,126.891 43.6446,128.224 42.5,129.5C 41.914,129.291 41.414,128.957 41,128.5C 40.7811,129.938 40.2811,131.271 39.5,132.5C 38.5832,131.873 37.5832,131.539 36.5,131.5C 36.5,131.167 36.5,130.833 36.5,130.5C 35.1075,126.011 34.1075,121.344 33.5,116.5C 33.9063,122.533 31.2397,126.366 25.5,128C 19.6722,129.119 15.6722,126.952 13.5,121.5C 13.5,120.5 13.5,119.5 13.5,118.5C 18.2678,117.397 20.9344,114.397 21.5,109.5C 17.1813,110.249 12.848,110.415 8.5,110C 7.31658,107.845 7.64991,105.845 9.5,104C 16.1675,104.777 22.5009,103.611 28.5,100.5C 30.704,101.299 32.704,101.299 34.5,100.5 Z"/></g>
<g><path style="opacity:1" fill="#c7b461" d="M 22.5,107.5 C 23.2389,107.369 23.9056,107.536 24.5,108C 23.269,109.183 23.269,110.349 24.5,111.5C 25.4287,110.311 25.762,108.978 25.5,107.5C 26.8333,107.5 28.1667,107.5 29.5,107.5C 29.8333,112.833 30.1667,112.833 30.5,107.5C 31.5,107.5 32.5,107.5 33.5,107.5C 33.4924,113.208 33.9924,113.541 35,108.5C 36.0113,107.663 37.1779,107.33 38.5,107.5C 38.5,109.5 38.5,111.5 38.5,113.5C 33.0143,113.069 27.6809,113.069 22.5,113.5C 22.5,111.5 22.5,109.5 22.5,107.5 Z"/></g>
<g><path style="opacity:1" fill="#60c1e7" d="M 90.5,140.5 C 94.3612,139.136 94.3612,137.469 90.5,135.5C 91.4652,132.764 91.4652,129.764 90.5,126.5C 91.1925,125.482 91.8592,124.482 92.5,123.5C 92.8333,122.167 93.1667,120.833 93.5,119.5C 94.9944,118.172 97.3277,117.005 100.5,116C 103.115,113.375 105.115,110.375 106.5,107C 109.347,106.056 111.847,106.556 114,108.5C 114.333,108.167 114.667,107.833 115,107.5C 116.375,111.944 115.041,115.277 111,117.5C 110.187,119.436 109.687,121.436 109.5,123.5C 104.389,123.616 102.056,126.282 102.5,131.5C 101.5,131.5 100.5,131.5 99.5,131.5C 99.8769,134.525 100.044,137.525 100,140.5C 99.3457,139.304 98.8457,139.304 98.5,140.5C 99.0253,141.192 99.6919,141.692 100.5,142C 98.3333,143.5 96.5,145.333 95,147.5C 94.51,146.207 94.3433,144.873 94.5,143.5C 93.1667,143.5 91.8333,143.5 90.5,143.5C 90.5,142.5 90.5,141.5 90.5,140.5 Z"/></g>
<g><path style="opacity:1" fill="#cb8c3f" d="M 116.5,114.5 C 116.811,115.478 117.478,116.145 118.5,116.5C 120.432,115.48 122.432,115.313 124.5,116C 124.043,116.414 123.709,116.914 123.5,117.5C 125.465,118.292 127.465,118.959 129.5,119.5C 130.167,118.167 130.833,116.833 131.5,115.5C 132.86,116.18 134.193,116.847 135.5,117.5C 136.848,118.601 138.348,119.601 140,120.5C 140.464,121.094 140.631,121.761 140.5,122.5C 138.983,122.511 137.816,123.177 137,124.5C 137.614,126.54 137.448,128.54 136.5,130.5C 133.783,135.293 129.783,136.96 124.5,135.5C 123.66,138.676 121.993,141.342 119.5,143.5C 118.417,143.539 117.417,143.873 116.5,144.5C 112.782,141.734 110.449,142.734 109.5,147.5C 109.5,148.167 109.167,148.5 108.5,148.5C 108.083,147.876 107.416,147.543 106.5,147.5C 104.557,148.689 102.557,149.689 100.5,150.5C 99.8333,150.5 99.1667,150.5 98.5,150.5C 99.8275,147.289 101.494,144.123 103.5,141C 102.946,139.449 102.28,137.949 101.5,136.5C 101.833,135.833 102.167,135.167 102.5,134.5C 103.995,135.705 105.328,135.705 106.5,134.5C 102.936,129.188 104.436,125.855 111,124.5C 111.579,120.332 113.412,116.998 116.5,114.5 Z"/></g>
<g><path style="opacity:1" fill="#eaae4f" d="M 106.5,134.5 C 104.611,129.752 106.278,127.085 111.5,126.5C 113.204,124.398 114.537,122.065 115.5,119.5C 116.5,119.167 117.5,118.833 118.5,118.5C 121.107,119.853 123.941,120.519 127,120.5C 129.352,120.695 131.352,120.028 133,118.5C 134.487,119.155 135.653,120.155 136.5,121.5C 134.467,123.452 134.134,125.618 135.5,128C 133.386,132.604 129.719,134.77 124.5,134.5C 122.68,137.823 120.013,140.156 116.5,141.5C 115.672,140.585 114.672,139.919 113.5,139.5C 111.865,140.046 110.199,140.38 108.5,140.5C 108.785,142.288 108.452,143.955 107.5,145.5C 106.833,145.167 106.167,144.833 105.5,144.5C 104.52,141.914 104.187,139.247 104.5,136.5C 105.675,136.719 106.675,136.386 107.5,135.5C 107.376,134.893 107.043,134.56 106.5,134.5 Z"/></g>
<g><path style="opacity:1" fill="#da4949" d="M 45.5,119.5 C 50.5,122.299 55.8333,124.299 61.5,125.5C 62.941,124.135 64.2744,122.635 65.5,121C 66.7932,120.51 68.1266,120.343 69.5,120.5C 69.5,121.5 69.5,122.5 69.5,123.5C 71.8273,123.753 73.8273,123.086 75.5,121.5C 78.4127,122.117 81.4127,122.117 84.5,121.5C 87.44,121.383 90.1067,122.05 92.5,123.5C 91.8592,124.482 91.1925,125.482 90.5,126.5C 91.4652,129.764 91.4652,132.764 90.5,135.5C 94.3612,137.469 94.3612,139.136 90.5,140.5C 89.5655,141.568 89.2322,142.901 89.5,144.5C 88.5041,144.586 87.6708,144.252 87,143.5C 86.5045,141.527 86.3379,139.527 86.5,137.5C 82.5854,137.753 78.9187,137.087 75.5,135.5C 73.5333,139.433 71.5333,143.433 69.5,147.5C 68.8826,147.389 68.3826,147.056 68,146.5C 66.6178,149.352 64.4511,151.018 61.5,151.5C 61.5,152.5 61.5,153.5 61.5,154.5C 59.8333,154.5 58.1667,154.5 56.5,154.5C 56.5,155.5 56.5,156.5 56.5,157.5C 53.9179,157.025 51.9179,157.692 50.5,159.5C 49.5,159.5 48.5,159.5 47.5,159.5C 47.8016,162.059 47.4682,164.393 46.5,166.5C 45.2976,167.405 43.9643,167.405 42.5,166.5C 41.7677,165.192 40.9344,163.858 40,162.5C 38.5688,153.856 37.0688,145.523 35.5,137.5C 35.2053,135.265 35.5386,133.265 36.5,131.5C 37.5832,131.539 38.5832,131.873 39.5,132.5C 40.2811,131.271 40.7811,129.938 41,128.5C 41.414,128.957 41.914,129.291 42.5,129.5C 43.6446,128.224 43.6446,126.891 42.5,125.5C 43.5,124.667 44.5,123.833 45.5,123C 42.8753,121.624 42.8753,120.458 45.5,119.5 Z"/></g>
<g><path style="opacity:1" fill="#44a4bf" d="M 106.5,104.5 C 108.292,104.634 109.958,104.301 111.5,103.5C 115.022,105.527 117.355,108.527 118.5,112.5C 117.757,113.182 117.091,113.849 116.5,114.5C 113.412,116.998 111.579,120.332 111,124.5C 104.436,125.855 102.936,129.188 106.5,134.5C 105.328,135.705 103.995,135.705 102.5,134.5C 102.167,135.167 101.833,135.833 101.5,136.5C 102.28,137.949 102.946,139.449 103.5,141C 101.494,144.123 99.8275,147.289 98.5,150.5C 95.0494,150.554 92.8827,148.887 92,145.5C 91.3292,144.748 90.4959,144.414 89.5,144.5C 89.2322,142.901 89.5655,141.568 90.5,140.5C 90.5,141.5 90.5,142.5 90.5,143.5C 91.8333,143.5 93.1667,143.5 94.5,143.5C 94.3433,144.873 94.51,146.207 95,147.5C 96.5,145.333 98.3333,143.5 100.5,142C 99.6919,141.692 99.0253,141.192 98.5,140.5C 98.8457,139.304 99.3457,139.304 100,140.5C 100.044,137.525 99.8769,134.525 99.5,131.5C 100.5,131.5 101.5,131.5 102.5,131.5C 102.056,126.282 104.389,123.616 109.5,123.5C 109.687,121.436 110.187,119.436 111,117.5C 115.041,115.277 116.375,111.944 115,107.5C 114.667,107.833 114.333,108.167 114,108.5C 111.847,106.556 109.347,106.056 106.5,107C 105.115,110.375 103.115,113.375 100.5,116C 97.3277,117.005 94.9944,118.172 93.5,119.5C 95.2694,116.848 97.2694,114.515 99.5,112.5C 103.697,109.898 103.364,108.232 98.5,107.5C 98.3433,106.127 98.51,104.793 99,103.5C 101.381,104.435 103.881,104.768 106.5,104.5 Z"/></g>
<g><path style="opacity:1" fill="#c89648" d="M 114.5,126.5 C 117.167,126.5 119.833,126.5 122.5,126.5C 122.693,130.449 123.193,130.449 124,126.5C 124.542,131.721 125.376,131.721 126.5,126.5C 127.466,128.396 127.799,130.396 127.5,132.5C 124.289,132.988 121.456,132.321 119,130.5C 117.951,132.107 116.451,132.773 114.5,132.5C 114.5,130.5 114.5,128.5 114.5,126.5 Z"/></g>
<g><path style="opacity:1" fill="#bae1f3" d="M -0.5,127.5 C 4.51471,130.064 9.84804,132.064 15.5,133.5C 17.8678,134.577 19.5345,136.244 20.5,138.5C 20.5354,144.96 19.7021,144.96 18,138.5C 17.6667,139.167 17.3333,139.833 17,140.5C 15.9887,139.663 14.8221,139.33 13.5,139.5C 9.21713,137.188 4.55047,135.855 -0.5,135.5C -0.5,132.833 -0.5,130.167 -0.5,127.5 Z"/></g>
<g><path style="opacity:1" fill="#9eabb1" d="M 36.5,130.5 C 36.5,130.833 36.5,131.167 36.5,131.5C 35.5386,133.265 35.2053,135.265 35.5,137.5C 34.596,136.791 34.2627,135.791 34.5,134.5C 30.1405,135.007 25.8072,135.673 21.5,136.5C 21.3631,129.374 22.0298,129.041 23.5,135.5C 27.7437,133.543 32.077,131.876 36.5,130.5 Z"/></g>
<g><path style="opacity:1" fill="#92d0ea" d="M -0.5,135.5 C 4.55047,135.855 9.21713,137.188 13.5,139.5C 12.7784,139.918 12.2784,140.584 12,141.5C 7.68952,136.88 6.18952,137.546 7.5,143.5C 8.08605,143.291 8.58605,142.957 9,142.5C 11.0693,143.264 13.236,143.764 15.5,144C 18.5034,147.796 21.17,151.63 23.5,155.5C 25.6735,159.852 28.3401,163.852 31.5,167.5C 31.3505,168.552 31.5172,169.552 32,170.5C 34.3333,171.5 36,173.167 37,175.5C 40.8489,185.72 44.6822,195.887 48.5,206C 47.552,206.483 46.552,206.649 45.5,206.5C 45.5,208.167 45.5,209.833 45.5,211.5C 46.5,211.5 47.5,211.5 48.5,211.5C 48.057,217.81 48.7237,223.977 50.5,230C 50.8333,230.5 51.1667,231 51.5,231.5C 53.1789,229.896 55.1789,229.229 57.5,229.5C 57.6932,233.449 58.1932,233.449 59,229.5C 59.3333,230.5 59.6667,231.5 60,232.5C 60.3095,231.234 60.8095,230.067 61.5,229C 64.146,228.503 66.8127,228.336 69.5,228.5C 69.5,230.167 69.5,231.833 69.5,233.5C 65.9703,232.989 62.8037,233.656 60,235.5C 58.2739,234.424 56.4406,234.257 54.5,235C 55.7332,236.667 57.0665,238.167 58.5,239.5C 54.1667,239.5 49.8333,239.5 45.5,239.5C 45.6168,237.516 44.9501,235.85 43.5,234.5C 42.5091,230.555 42.1758,226.555 42.5,222.5C 39.2659,222.205 36.2659,222.871 33.5,224.5C 32.0805,229.493 31.7472,234.493 32.5,239.5C 29.8333,239.5 27.1667,239.5 24.5,239.5C 24.6641,236.813 24.4974,234.146 24,231.5C 22.6439,232.38 21.1439,232.714 19.5,232.5C 19.5,231.5 19.5,230.5 19.5,229.5C 20.8333,229.5 22.1667,229.5 23.5,229.5C 23.0956,223.838 23.7623,218.338 25.5,213C 22.9304,205.958 20.7638,198.791 19,191.5C 15.2568,185.634 12.0901,179.468 9.5,173C 5.69654,170.729 2.3632,171.229 -0.5,174.5C -0.5,161.5 -0.5,148.5 -0.5,135.5 Z"/></g>
<g><path style="opacity:1" fill="#cee1e7" d="M 168.5,108.5 C 169.75,108.577 170.583,109.244 171,110.5C 171.278,109.584 171.778,108.918 172.5,108.5C 171.652,110.481 171.152,112.481 171,114.5C 172.794,117.214 173.96,120.214 174.5,123.5C 175.425,122.359 176.259,122.359 177,123.5C 178.043,119.774 178.543,120.107 178.5,124.5C 175.002,124.565 174.502,125.899 177,128.5C 179.892,131.995 183.559,135.328 188,138.5C 188.133,141.525 189.133,144.192 191,146.5C 193.114,152.057 192.614,157.39 189.5,162.5C 190.274,163.711 191.107,163.711 192,162.5C 192.667,163.833 193.667,164.833 195,165.5C 195.293,162.046 196.626,161.712 199,164.5C 200.395,162.86 201.895,161.36 203.5,160C 203.167,159.667 202.833,159.333 202.5,159C 203.742,158.689 204.742,159.189 205.5,160.5C 206.086,160.291 206.586,159.957 207,159.5C 207.454,153.212 208.954,152.878 211.5,158.5C 212.325,159.386 213.325,159.719 214.5,159.5C 214.889,164.504 215.389,169.504 216,174.5C 216.278,175.416 216.778,176.082 217.5,176.5C 217.5,197.5 217.5,218.5 217.5,239.5C 215.833,239.5 214.167,239.5 212.5,239.5C 213.069,236.551 213.402,233.551 213.5,230.5C 212.127,217.533 211.127,204.533 210.5,191.5C 209.491,187.463 208.491,183.463 207.5,179.5C 200.491,176.58 193.158,174.58 185.5,173.5C 184.778,169.153 184.112,164.82 183.5,160.5C 180.647,159.809 178.147,158.476 176,156.5C 175.297,151.305 175.464,146.139 176.5,141C 176.385,139.105 175.718,137.438 174.5,136C 167.973,134.267 161.64,132.1 155.5,129.5C 149.967,130.874 144.467,132.208 139,133.5C 138.764,131.881 137.931,130.881 136.5,130.5C 137.448,128.54 137.614,126.54 137,124.5C 137.816,123.177 138.983,122.511 140.5,122.5C 142.39,122.703 143.89,122.037 145,120.5C 147.064,121.591 149.231,121.758 151.5,121C 152.056,120.617 152.389,120.117 152.5,119.5C 153.117,119.611 153.617,119.944 154,120.5C 155.63,118.794 157.13,117.127 158.5,115.5C 159.167,116.833 159.833,118.167 160.5,119.5C 161.382,118.24 162.382,117.074 163.5,116C 162.833,113.333 162.167,110.667 161.5,108C 162.449,107.383 163.282,107.549 164,108.5C 166.389,116.146 167.889,116.146 168.5,108.5 Z"/></g>
<g><path style="opacity:1" fill="#a8c6d3" d="M 13.5,139.5 C 14.8221,139.33 15.9887,139.663 17,140.5C 17.3333,139.833 17.6667,139.167 18,138.5C 19.7021,144.96 20.5354,144.96 20.5,138.5C 22.1667,138.5 23.8333,138.5 25.5,138.5C 25.6219,142.838 25.9553,143.172 26.5,139.5C 27.5,139.5 28.5,139.5 29.5,139.5C 29.5,140.833 29.5,142.167 29.5,143.5C 27.076,143.192 24.7427,143.526 22.5,144.5C 23.6888,145.429 25.0222,145.762 26.5,145.5C 26.5,146.833 26.5,148.167 26.5,149.5C 25.325,149.281 24.325,149.614 23.5,150.5C 25.0453,151.452 26.712,151.785 28.5,151.5C 28.5,152.833 28.5,154.167 28.5,155.5C 26.8333,155.5 25.1667,155.5 23.5,155.5C 21.17,151.63 18.5034,147.796 15.5,144C 13.236,143.764 11.0693,143.264 9,142.5C 8.58605,142.957 8.08605,143.291 7.5,143.5C 6.18952,137.546 7.68952,136.88 12,141.5C 12.2784,140.584 12.7784,139.918 13.5,139.5 Z"/></g>
<g><path style="opacity:1" fill="#c3b05d" d="M 89.5,144.5 C 90.4959,144.414 91.3292,144.748 92,145.5C 92.8827,148.887 95.0494,150.554 98.5,150.5C 99.1667,150.5 99.8333,150.5 100.5,150.5C 99.1466,152.183 97.4799,153.516 95.5,154.5C 94.695,152.787 93.695,151.121 92.5,149.5C 91.7189,150.729 91.2189,152.062 91,153.5C 85.3776,153.411 79.5443,153.411 73.5,153.5C 73.7135,151.856 73.3802,150.356 72.5,149C 73.7932,148.51 75.1266,148.343 76.5,148.5C 76.6399,150.124 75.9733,151.29 74.5,152C 77.4904,152.847 78.8238,151.68 78.5,148.5C 80.1667,148.5 81.8333,148.5 83.5,148.5C 84.1667,152.5 84.8333,152.5 85.5,148.5C 87.143,148.48 88.4763,149.147 89.5,150.5C 90.6942,148.484 90.6942,146.484 89.5,144.5 Z"/></g>
<g><path style="opacity:1" fill="#e6cf6a" d="M 89.5,144.5 C 90.6942,146.484 90.6942,148.484 89.5,150.5C 88.4763,149.147 87.143,148.48 85.5,148.5C 84.8333,152.5 84.1667,152.5 83.5,148.5C 81.8333,148.5 80.1667,148.5 78.5,148.5C 78.8238,151.68 77.4904,152.847 74.5,152C 75.9733,151.29 76.6399,150.124 76.5,148.5C 75.1266,148.343 73.7932,148.51 72.5,149C 73.3802,150.356 73.7135,151.856 73.5,153.5C 79.5443,153.411 85.3776,153.411 91,153.5C 91.2189,152.062 91.7189,150.729 92.5,149.5C 93.695,151.121 94.695,152.787 95.5,154.5C 95.5,155.167 95.1667,155.5 94.5,155.5C 90.447,156.013 86.447,156.846 82.5,158C 79.4186,160.867 75.7519,162.7 71.5,163.5C 70.8182,162.757 70.1515,162.091 69.5,161.5C 69.401,157.143 69.401,152.476 69.5,147.5C 71.5333,143.433 73.5333,139.433 75.5,135.5C 78.9187,137.087 82.5854,137.753 86.5,137.5C 86.3379,139.527 86.5045,141.527 87,143.5C 87.6708,144.252 88.5041,144.586 89.5,144.5 Z"/></g>
<g><path style="opacity:1" fill="#caad50" d="M 94.5,155.5 C 93.3617,158.267 91.5283,158.934 89,157.5C 88.5814,158.672 87.9147,159.672 87,160.5C 85.3005,159.594 83.4672,159.261 81.5,159.5C 81.3132,162.026 79.9799,163.693 77.5,164.5C 73.8822,165.346 70.2155,165.68 66.5,165.5C 67.209,164.596 68.209,164.263 69.5,164.5C 69.5,163.5 69.5,162.5 69.5,161.5C 70.1515,162.091 70.8182,162.757 71.5,163.5C 75.7519,162.7 79.4186,160.867 82.5,158C 86.447,156.846 90.447,156.013 94.5,155.5 Z"/></g>
<g><path style="opacity:1" fill="#92d3ee" d="M 171.5,198.5 C 170.102,200.533 168.102,201.533 165.5,201.5C 162.759,200.981 160.092,200.981 157.5,201.5C 156.252,200.96 155.085,200.293 154,199.5C 150.868,201.799 148.701,204.799 147.5,208.5C 147.709,209.086 148.043,209.586 148.5,210C 146.342,211.312 146.009,212.978 147.5,215C 150,215.167 152.5,215.333 155,215.5C 157.95,215.432 160.617,214.766 163,213.5C 164.18,214.684 165.68,215.351 167.5,215.5C 169.32,215.351 170.82,214.684 172,213.5C 172.278,214.416 172.778,215.082 173.5,215.5C 176.392,220.943 179.559,226.276 183,231.5C 183.497,234.146 183.664,236.813 183.5,239.5C 153.833,239.5 124.167,239.5 94.5,239.5C 96.6602,238.266 98.8269,236.933 101,235.5C 102.457,231.259 102.791,226.926 102,222.5C 95.9088,213.821 92.4088,204.154 91.5,193.5C 91.8555,192.478 92.5222,191.811 93.5,191.5C 97.2207,188.371 100.387,184.704 103,180.5C 107.066,181.464 111.233,181.797 115.5,181.5C 115.5,179.833 115.5,178.167 115.5,176.5C 111.167,176.5 106.833,176.5 102.5,176.5C 102.298,174.05 102.631,171.717 103.5,169.5C 108.479,166.521 112.479,162.521 115.5,157.5C 116.474,155.257 116.808,152.924 116.5,150.5C 120.41,150.737 124.077,149.904 127.5,148C 132.833,147.333 138.167,147.333 143.5,148C 145.55,149.636 146.55,151.802 146.5,154.5C 154.001,157.095 161.501,157.095 169,154.5C 171.992,158.032 175.325,161.365 179,164.5C 181.591,171.107 180.591,177.107 176,182.5C 173.983,187.713 172.483,193.046 171.5,198.5 Z"/></g>
<g><path style="opacity:1" fill="#d7cae4" d="M 60.5,194.5 C 58.0672,194.727 56.4006,193.727 55.5,191.5C 55.67,190.178 55.3366,189.011 54.5,188C 57.146,187.503 59.8127,187.336 62.5,187.5C 62.33,186.178 62.6634,185.011 63.5,184C 60.3033,183.013 57.4699,183.513 55,185.5C 53.5823,182.999 52.5823,183.332 52,186.5C 51.2641,181.209 50.0974,176.042 48.5,171C 48.8485,167.093 49.5152,163.26 50.5,159.5C 52.3388,158.248 54.1722,158.248 56,159.5C 57.5528,157.306 59.7195,156.14 62.5,156C 63.2076,153.232 64.7076,152.399 67,153.5C 67.6174,156.035 67.1174,158.368 65.5,160.5C 66.8034,162.589 66.3034,164.256 64,165.5C 62.3286,171.673 62.4953,177.84 64.5,184C 64.4148,185.107 64.0814,186.107 63.5,187C 65.5,187.333 67.5,187.667 69.5,188C 68.8333,189.333 68.1667,190.667 67.5,192C 64.9963,192.698 62.663,193.531 60.5,194.5 Z"/></g>
<g><path style="opacity:1" fill="#e9a939" d="M 119.5,143.5 C 116.534,146.66 113.534,149.827 110.5,153C 105.922,153.99 103.589,156.823 103.5,161.5C 103.167,161.5 102.833,161.5 102.5,161.5C 98.6032,161.498 95.7699,163.165 94,166.5C 92.0624,165.14 90.3957,165.473 89,167.5C 88.5006,172.823 88.334,178.156 88.5,183.5C 83.791,184.513 79.6244,186.513 76,189.5C 75.5357,188.906 75.369,188.239 75.5,187.5C 76.2674,186.828 76.9341,185.995 77.5,185C 75.968,184.3 74.968,183.134 74.5,181.5C 71.57,181.096 68.7367,181.096 66,181.5C 65.3333,180.5 65.3333,179.5 66,178.5C 66.8928,179.711 67.7261,179.711 68.5,178.5C 66.0814,177.672 64.7481,176.006 64.5,173.5C 65.9917,171.028 66.6584,168.361 66.5,165.5C 70.2155,165.68 73.8822,165.346 77.5,164.5C 79.9799,163.693 81.3132,162.026 81.5,159.5C 83.4672,159.261 85.3005,159.594 87,160.5C 87.9147,159.672 88.5814,158.672 89,157.5C 91.5283,158.934 93.3617,158.267 94.5,155.5C 95.1667,155.5 95.5,155.167 95.5,154.5C 97.4799,153.516 99.1466,152.183 100.5,150.5C 102.557,149.689 104.557,148.689 106.5,147.5C 107.416,147.543 108.083,147.876 108.5,148.5C 106.328,149.802 103.994,150.968 101.5,152C 97.0853,157.405 91.4186,160.739 84.5,162C 80.1365,166.384 74.8032,168.217 68.5,167.5C 68.9167,170.079 68.25,172.246 66.5,174C 69.2913,175.23 71.9579,176.73 74.5,178.5C 76.3124,180.665 78.1457,182.665 80,184.5C 82.2678,183.528 84.2678,182.195 86,180.5C 86.3333,176.167 86.6667,171.833 87,167.5C 87.6924,166.975 88.1924,166.308 88.5,165.5C 91.9265,163.787 95.2598,162.12 98.5,160.5C 98.33,159.178 98.6634,158.011 99.5,157C 102.386,154.803 105.552,152.97 109,151.5C 109.645,150.354 110.478,149.354 111.5,148.5C 111.043,147.702 110.376,147.369 109.5,147.5C 110.449,142.734 112.782,141.734 116.5,144.5C 117.417,143.873 118.417,143.539 119.5,143.5 Z"/></g>
<g><path style="opacity:1" fill="#b4a7c6" d="M 50.5,159.5 C 49.5152,163.26 48.8485,167.093 48.5,171C 50.0974,176.042 51.2641,181.209 52,186.5C 52.5823,183.332 53.5823,182.999 55,185.5C 57.4699,183.513 60.3033,183.013 63.5,184C 62.6634,185.011 62.33,186.178 62.5,187.5C 59.8127,187.336 57.146,187.503 54.5,188C 55.3366,189.011 55.67,190.178 55.5,191.5C 54.3406,189.75 52.674,188.75 50.5,188.5C 49.2251,183.011 47.5584,177.677 45.5,172.5C 46.4614,170.735 46.7947,168.735 46.5,166.5C 47.4682,164.393 47.8016,162.059 47.5,159.5C 48.5,159.5 49.5,159.5 50.5,159.5 Z"/></g>
<g><path style="opacity:1" fill="#ded96d" d="M 42.5,166.5 C 43.9643,167.405 45.2976,167.405 46.5,166.5C 46.7947,168.735 46.4614,170.735 45.5,172.5C 43.9925,170.819 42.9925,168.819 42.5,166.5 Z"/></g>
<g><path style="opacity:1" fill="#b5a5c5" d="M 69.5,147.5 C 69.401,152.476 69.401,157.143 69.5,161.5C 69.5,162.5 69.5,163.5 69.5,164.5C 68.209,164.263 67.209,164.596 66.5,165.5C 66.6584,168.361 65.9917,171.028 64.5,173.5C 64.7481,176.006 66.0814,177.672 68.5,178.5C 67.7261,179.711 66.8928,179.711 66,178.5C 65.3333,179.5 65.3333,180.5 66,181.5C 68.7367,181.096 71.57,181.096 74.5,181.5C 74.968,183.134 75.968,184.3 77.5,185C 76.9341,185.995 76.2674,186.828 75.5,187.5C 74.0639,187.755 72.5639,188.088 71,188.5C 70.9219,190.657 70.7552,192.657 70.5,194.5C 67.6008,195.642 64.6008,196.308 61.5,196.5C 61.1667,195.833 60.8333,195.167 60.5,194.5C 62.663,193.531 64.9963,192.698 67.5,192C 68.1667,190.667 68.8333,189.333 69.5,188C 67.5,187.667 65.5,187.333 63.5,187C 64.0814,186.107 64.4148,185.107 64.5,184C 62.4953,177.84 62.3286,171.673 64,165.5C 66.3034,164.256 66.8034,162.589 65.5,160.5C 67.1174,158.368 67.6174,156.035 67,153.5C 64.7076,152.399 63.2076,153.232 62.5,156C 59.7195,156.14 57.5528,157.306 56,159.5C 54.1722,158.248 52.3388,158.248 50.5,159.5C 51.9179,157.692 53.9179,157.025 56.5,157.5C 56.5,156.5 56.5,155.5 56.5,154.5C 58.1667,154.5 59.8333,154.5 61.5,154.5C 61.5,153.5 61.5,152.5 61.5,151.5C 64.4511,151.018 66.6178,149.352 68,146.5C 68.3826,147.056 68.8826,147.389 69.5,147.5 Z"/></g>
<g><path style="opacity:1" fill="#e9be79" d="M 109.5,147.5 C 110.376,147.369 111.043,147.702 111.5,148.5C 110.478,149.354 109.645,150.354 109,151.5C 105.552,152.97 102.386,154.803 99.5,157C 98.6634,158.011 98.33,159.178 98.5,160.5C 95.2598,162.12 91.9265,163.787 88.5,165.5C 88.1924,166.308 87.6924,166.975 87,167.5C 86.6667,171.833 86.3333,176.167 86,180.5C 84.2678,182.195 82.2678,183.528 80,184.5C 78.1457,182.665 76.3124,180.665 74.5,178.5C 71.9579,176.73 69.2913,175.23 66.5,174C 68.25,172.246 68.9167,170.079 68.5,167.5C 74.8032,168.217 80.1365,166.384 84.5,162C 91.4186,160.739 97.0853,157.405 101.5,152C 103.994,150.968 106.328,149.802 108.5,148.5C 109.167,148.5 109.5,148.167 109.5,147.5 Z"/></g>
<g><path style="opacity:1" fill="#bae0f2" d="M 212.5,239.5 C 202.833,239.5 193.167,239.5 183.5,239.5C 183.664,236.813 183.497,234.146 183,231.5C 179.559,226.276 176.392,220.943 173.5,215.5C 172.075,209.946 171.409,204.279 171.5,198.5C 172.483,193.046 173.983,187.713 176,182.5C 180.591,177.107 181.591,171.107 179,164.5C 175.325,161.365 171.992,158.032 169,154.5C 161.501,157.095 154.001,157.095 146.5,154.5C 146.55,151.802 145.55,149.636 143.5,148C 138.167,147.333 132.833,147.333 127.5,148C 124.077,149.904 120.41,150.737 116.5,150.5C 116.808,152.924 116.474,155.257 115.5,157.5C 112.479,162.521 108.479,166.521 103.5,169.5C 103.5,166.833 103.5,164.167 103.5,161.5C 103.589,156.823 105.922,153.99 110.5,153C 113.534,149.827 116.534,146.66 119.5,143.5C 121.993,141.342 123.66,138.676 124.5,135.5C 129.783,136.96 133.783,135.293 136.5,130.5C 137.931,130.881 138.764,131.881 139,133.5C 144.467,132.208 149.967,130.874 155.5,129.5C 161.64,132.1 167.973,134.267 174.5,136C 175.718,137.438 176.385,139.105 176.5,141C 175.464,146.139 175.297,151.305 176,156.5C 178.147,158.476 180.647,159.809 183.5,160.5C 184.112,164.82 184.778,169.153 185.5,173.5C 193.158,174.58 200.491,176.58 207.5,179.5C 208.491,183.463 209.491,187.463 210.5,191.5C 211.127,204.533 212.127,217.533 213.5,230.5C 213.402,233.551 213.069,236.551 212.5,239.5 Z"/></g>
<g><path style="opacity:1" fill="#86bbd2" d="M 102.5,161.5 C 102.833,161.5 103.167,161.5 103.5,161.5C 103.5,164.167 103.5,166.833 103.5,169.5C 102.631,171.717 102.298,174.05 102.5,176.5C 106.833,176.5 111.167,176.5 115.5,176.5C 115.5,178.167 115.5,179.833 115.5,181.5C 111.233,181.797 107.066,181.464 103,180.5C 100.387,184.704 97.2207,188.371 93.5,191.5C 93.631,190.761 93.4643,190.094 93,189.5C 92.2825,190.451 91.4491,190.617 90.5,190C 91.8333,188.667 93.1667,187.333 94.5,186C 89.6479,186.466 89.4813,185.633 94,183.5C 94.9203,180.899 95.587,178.232 96,175.5C 97.8777,172.967 99.711,170.467 101.5,168C 102.077,165.863 102.41,163.696 102.5,161.5 Z"/></g>
<g><path style="opacity:1" fill="#a04c47" d="M 179.5,182.5 C 180.586,182.62 181.253,183.287 181.5,184.5C 180.524,189.549 179.357,194.549 178,199.5C 177.978,193.811 178.478,188.144 179.5,182.5 Z"/></g>
<g><path style="opacity:1" fill="#d0e4eb" d="M -0.5,103.5 C 0.833333,103.833 2.16667,104.167 3.5,104.5C 5.01465,105.493 6.01465,107.493 6.5,110.5C 8.75127,111.695 11.0846,112.695 13.5,113.5C 14.9684,111.667 16.6351,111.334 18.5,112.5C 17.0642,113.934 15.3975,115.1 13.5,116C 11.8876,116.72 10.3876,116.554 9,115.5C 8.77398,118.691 10.274,120.691 13.5,121.5C 15.6722,126.952 19.6722,129.119 25.5,128C 31.2397,126.366 33.9063,122.533 33.5,116.5C 34.1075,121.344 35.1075,126.011 36.5,130.5C 32.077,131.876 27.7437,133.543 23.5,135.5C 22.0298,129.041 21.3631,129.374 21.5,136.5C 25.8072,135.673 30.1405,135.007 34.5,134.5C 34.2627,135.791 34.596,136.791 35.5,137.5C 37.0688,145.523 38.5688,153.856 40,162.5C 40.9344,163.858 41.7677,165.192 42.5,166.5C 42.9925,168.819 43.9925,170.819 45.5,172.5C 47.5584,177.677 49.2251,183.011 50.5,188.5C 51.8985,192.288 54.0651,195.621 57,198.5C 58.9476,203.342 60.281,208.342 61,213.5C 62.4675,216.787 64.6341,219.454 67.5,221.5C 68.5676,222.434 69.901,222.768 71.5,222.5C 72.2389,222.369 72.9056,222.536 73.5,223C 71.8934,224.049 71.2267,225.549 71.5,227.5C 67.0887,227.979 62.922,227.312 59,225.5C 58.3828,224.551 58.5494,223.718 59.5,223C 58.552,222.517 57.552,222.351 56.5,222.5C 55.8675,217.953 55.8675,213.453 56.5,209C 56.1667,208.167 55.8333,207.333 55.5,206.5C 54.7189,207.729 54.2189,209.062 54,210.5C 52.1419,204.451 49.4752,198.784 46,193.5C 43.0854,184.276 40.4188,174.942 38,165.5C 37.2588,166.641 36.4255,166.641 35.5,165.5C 34.4024,169.361 33.5691,169.361 33,165.5C 32.2828,166.044 31.7828,166.711 31.5,167.5C 28.3401,163.852 25.6735,159.852 23.5,155.5C 25.1667,155.5 26.8333,155.5 28.5,155.5C 28.5,154.167 28.5,152.833 28.5,151.5C 26.712,151.785 25.0453,151.452 23.5,150.5C 24.325,149.614 25.325,149.281 26.5,149.5C 26.5,148.167 26.5,146.833 26.5,145.5C 25.0222,145.762 23.6888,145.429 22.5,144.5C 24.7427,143.526 27.076,143.192 29.5,143.5C 29.5,142.167 29.5,140.833 29.5,139.5C 28.5,139.5 27.5,139.5 26.5,139.5C 25.9553,143.172 25.6219,142.838 25.5,138.5C 23.8333,138.5 22.1667,138.5 20.5,138.5C 19.5345,136.244 17.8678,134.577 15.5,133.5C 9.84804,132.064 4.51471,130.064 -0.5,127.5C -0.5,119.5 -0.5,111.5 -0.5,103.5 Z"/></g>
<g><path style="opacity:1" fill="#86b23d" d="M 88.5,183.5 C 89.8759,186.933 89.3759,190.266 87,193.5C 86.501,197.821 86.3343,202.154 86.5,206.5C 85.1667,206.5 83.8333,206.5 82.5,206.5C 81.0335,209.258 80.3668,208.925 80.5,205.5C 81.9008,205.029 83.2342,204.362 84.5,203.5C 84.7169,200.333 84.0503,197.166 82.5,194C 84.6148,192.601 86.2815,190.768 87.5,188.5C 87,188.167 86.5,187.833 86,187.5C 81.5199,188.384 77.3532,189.717 73.5,191.5C 73.3713,193.216 73.038,194.883 72.5,196.5C 72.1667,196.5 71.8333,196.5 71.5,196.5C 69.3699,197.032 67.3699,197.865 65.5,199C 67.0056,202.091 68.6723,205.091 70.5,208C 70.6088,211.42 70.4421,214.92 70,218.5C 70.3333,218.833 70.6667,219.167 71,219.5C 71.5,218.333 72.3333,217.5 73.5,217C 72.3595,216.259 72.3595,215.425 73.5,214.5C 75.0453,213.548 76.712,213.215 78.5,213.5C 78.2627,212.209 78.596,211.209 79.5,210.5C 79.5,211.833 79.5,213.167 79.5,214.5C 78.209,214.263 77.209,214.596 76.5,215.5C 75.0918,217.969 73.4251,220.303 71.5,222.5C 69.901,222.768 68.5676,222.434 67.5,221.5C 68.4147,216.461 68.4147,211.461 67.5,206.5C 66.5,206.5 65.5,206.5 64.5,206.5C 64.8076,204.076 64.4742,201.743 63.5,199.5C 62.0815,198.995 61.4148,197.995 61.5,196.5C 64.6008,196.308 67.6008,195.642 70.5,194.5C 70.7552,192.657 70.9219,190.657 71,188.5C 72.5639,188.088 74.0639,187.755 75.5,187.5C 75.369,188.239 75.5357,188.906 76,189.5C 79.6244,186.513 83.791,184.513 88.5,183.5 Z"/></g>
<g><path style="opacity:1" fill="#bcd25e" d="M 80.5,205.5 C 80.2962,202.482 79.9629,199.482 79.5,196.5C 77.5,196.5 75.5,196.5 73.5,196.5C 73.1667,200.5 72.8333,200.5 72.5,196.5C 73.038,194.883 73.3713,193.216 73.5,191.5C 77.3532,189.717 81.5199,188.384 86,187.5C 86.5,187.833 87,188.167 87.5,188.5C 86.2815,190.768 84.6148,192.601 82.5,194C 84.0503,197.166 84.7169,200.333 84.5,203.5C 83.2342,204.362 81.9008,205.029 80.5,205.5 Z"/></g>
<g><path style="opacity:1" fill="#a17c51" d="M 50.5,188.5 C 52.674,188.75 54.3406,189.75 55.5,191.5C 56.4006,193.727 58.0672,194.727 60.5,194.5C 60.8333,195.167 61.1667,195.833 61.5,196.5C 61.4148,197.995 62.0815,198.995 63.5,199.5C 64.4742,201.743 64.8076,204.076 64.5,206.5C 65.5,206.5 66.5,206.5 67.5,206.5C 68.4147,211.461 68.4147,216.461 67.5,221.5C 64.6341,219.454 62.4675,216.787 61,213.5C 60.281,208.342 58.9476,203.342 57,198.5C 54.0651,195.621 51.8985,192.288 50.5,188.5 Z"/></g>
<g><path style="opacity:1" fill="#87bed5" d="M 171.5,198.5 C 171.409,204.279 172.075,209.946 173.5,215.5C 172.778,215.082 172.278,214.416 172,213.5C 170.82,214.684 169.32,215.351 167.5,215.5C 165.68,215.351 164.18,214.684 163,213.5C 160.617,214.766 157.95,215.432 155,215.5C 152.5,215.333 150,215.167 147.5,215C 146.009,212.978 146.342,211.312 148.5,210C 148.043,209.586 147.709,209.086 147.5,208.5C 148.701,204.799 150.868,201.799 154,199.5C 155.085,200.293 156.252,200.96 157.5,201.5C 160.092,200.981 162.759,200.981 165.5,201.5C 168.102,201.533 170.102,200.533 171.5,198.5 Z"/></g>
<g><path style="opacity:1" fill="#c2dfec" d="M 102.5,161.5 C 102.41,163.696 102.077,165.863 101.5,168C 99.711,170.467 97.8777,172.967 96,175.5C 95.587,178.232 94.9203,180.899 94,183.5C 89.4813,185.633 89.6479,186.466 94.5,186C 93.1667,187.333 91.8333,188.667 90.5,190C 91.4491,190.617 92.2825,190.451 93,189.5C 93.4643,190.094 93.631,190.761 93.5,191.5C 92.5222,191.811 91.8555,192.478 91.5,193.5C 92.4088,204.154 95.9088,213.821 102,222.5C 102.791,226.926 102.457,231.259 101,235.5C 98.8269,236.933 96.6602,238.266 94.5,239.5C 91.8333,239.5 89.1667,239.5 86.5,239.5C 84.7572,232.297 84.0906,224.964 84.5,217.5C 82.5328,217.261 80.6995,217.594 79,218.5C 78.1482,217.429 77.3149,216.429 76.5,215.5C 77.209,214.596 78.209,214.263 79.5,214.5C 80.4942,211.876 81.4942,209.21 82.5,206.5C 83.8333,206.5 85.1667,206.5 86.5,206.5C 86.3343,202.154 86.501,197.821 87,193.5C 89.3759,190.266 89.8759,186.933 88.5,183.5C 88.334,178.156 88.5006,172.823 89,167.5C 90.3957,165.473 92.0624,165.14 94,166.5C 95.7699,163.165 98.6032,161.498 102.5,161.5 Z"/></g>
<g><path style="opacity:1" fill="#bdd35d" d="M 71.5,196.5 C 71.5,198.167 71.5,199.833 71.5,201.5C 82.1667,201.833 82.1667,202.167 71.5,202.5C 71.5,204.167 71.5,205.833 71.5,207.5C 73.7925,207.756 75.9592,207.423 78,206.5C 79.1882,207.563 79.6882,208.897 79.5,210.5C 78.596,211.209 78.2627,212.209 78.5,213.5C 76.712,213.215 75.0453,213.548 73.5,214.5C 72.3595,215.425 72.3595,216.259 73.5,217C 72.3333,217.5 71.5,218.333 71,219.5C 70.6667,219.167 70.3333,218.833 70,218.5C 70.4421,214.92 70.6088,211.42 70.5,208C 68.6723,205.091 67.0056,202.091 65.5,199C 67.3699,197.865 69.3699,197.032 71.5,196.5 Z"/></g>
<g><path style="opacity:1" fill="#9db054" d="M 71.5,196.5 C 71.8333,196.5 72.1667,196.5 72.5,196.5C 72.8333,200.5 73.1667,200.5 73.5,196.5C 75.5,196.5 77.5,196.5 79.5,196.5C 79.9629,199.482 80.2962,202.482 80.5,205.5C 80.3668,208.925 81.0335,209.258 82.5,206.5C 81.4942,209.21 80.4942,211.876 79.5,214.5C 79.5,213.167 79.5,211.833 79.5,210.5C 79.6882,208.897 79.1882,207.563 78,206.5C 75.9592,207.423 73.7925,207.756 71.5,207.5C 71.5,205.833 71.5,204.167 71.5,202.5C 82.1667,202.167 82.1667,201.833 71.5,201.5C 71.5,199.833 71.5,198.167 71.5,196.5 Z"/></g>
<g><path style="opacity:1" fill="#6fc7e9" d="M 24.5,239.5 C 16.1667,239.5 7.83333,239.5 -0.5,239.5C -0.5,217.833 -0.5,196.167 -0.5,174.5C 2.3632,171.229 5.69654,170.729 9.5,173C 12.0901,179.468 15.2568,185.634 19,191.5C 20.7638,198.791 22.9304,205.958 25.5,213C 23.7623,218.338 23.0956,223.838 23.5,229.5C 22.1667,229.5 20.8333,229.5 19.5,229.5C 19.5,230.5 19.5,231.5 19.5,232.5C 21.1439,232.714 22.6439,232.38 24,231.5C 24.4974,234.146 24.6641,236.813 24.5,239.5 Z"/></g>
<g><path style="opacity:1" fill="#c0e2f2" d="M 32.5,186.5 C 44.2054,191.944 46.5387,200.11 39.5,211C 35.7973,211.579 32.1306,211.412 28.5,210.5C 28.1692,202.804 28.5025,195.138 29.5,187.5C 31.2249,189.092 32.2249,188.758 32.5,186.5 Z"/></g>
<g><path style="opacity:1" fill="#f7f7f7" d="M 88.5,212.5 C 90.3904,212.297 91.8904,212.963 93,214.5C 96.2397,219.113 98.7397,224.113 100.5,229.5C 98.4584,236.442 94.2917,238.442 88,235.5C 86.0039,227.786 86.1706,220.12 88.5,212.5 Z"/></g>
<g><path style="opacity:1" fill="#994d48" d="M 185.5,229.5 C 187.337,229.639 187.67,230.306 186.5,231.5C 185.702,231.043 185.369,230.376 185.5,229.5 Z"/></g>
<g><path style="opacity:1" fill="#c8e4ef" d="M 45.5,239.5 C 41.1667,239.5 36.8333,239.5 32.5,239.5C 31.7472,234.493 32.0805,229.493 33.5,224.5C 36.2659,222.871 39.2659,222.205 42.5,222.5C 42.1758,226.555 42.5091,230.555 43.5,234.5C 44.9501,235.85 45.6168,237.516 45.5,239.5 Z"/></g>
<g><path style="opacity:1" fill="#b4ddf1" d="M 71.5,222.5 C 73.4251,220.303 75.0918,217.969 76.5,215.5C 77.3149,216.429 78.1482,217.429 79,218.5C 80.6995,217.594 82.5328,217.261 84.5,217.5C 84.0906,224.964 84.7572,232.297 86.5,239.5C 77.1667,239.5 67.8333,239.5 58.5,239.5C 57.0665,238.167 55.7332,236.667 54.5,235C 56.4406,234.257 58.2739,234.424 60,235.5C 62.8037,233.656 65.9703,232.989 69.5,233.5C 69.5,231.833 69.5,230.167 69.5,228.5C 66.8127,228.336 64.146,228.503 61.5,229C 60.8095,230.067 60.3095,231.234 60,232.5C 59.6667,231.5 59.3333,230.5 59,229.5C 58.1932,233.449 57.6932,233.449 57.5,229.5C 55.1789,229.229 53.1789,229.896 51.5,231.5C 51.1667,231 50.8333,230.5 50.5,230C 48.7237,223.977 48.057,217.81 48.5,211.5C 47.5,211.5 46.5,211.5 45.5,211.5C 45.5,209.833 45.5,208.167 45.5,206.5C 46.552,206.649 47.552,206.483 48.5,206C 44.6822,195.887 40.8489,185.72 37,175.5C 36,173.167 34.3333,171.5 32,170.5C 31.5172,169.552 31.3505,168.552 31.5,167.5C 31.7828,166.711 32.2828,166.044 33,165.5C 33.5691,169.361 34.4024,169.361 35.5,165.5C 36.4255,166.641 37.2588,166.641 38,165.5C 40.4188,174.942 43.0854,184.276 46,193.5C 49.4752,198.784 52.1419,204.451 54,210.5C 54.2189,209.062 54.7189,207.729 55.5,206.5C 55.8333,207.333 56.1667,208.167 56.5,209C 55.8675,213.453 55.8675,217.953 56.5,222.5C 57.552,222.351 58.552,222.517 59.5,223C 58.5494,223.718 58.3828,224.551 59,225.5C 62.922,227.312 67.0887,227.979 71.5,227.5C 71.2267,225.549 71.8934,224.049 73.5,223C 72.9056,222.536 72.2389,222.369 71.5,222.5 Z"/></g>
</svg>
